<svg width="38" height="22" viewBox="0 0 38 22" fill="none" xmlns="http://www.w3.org/2000/svg">
<rect x="0.5" y="0.5" width="37" height="21" rx="10.5" stroke="#3C82C2"/>
<g filter="url(#filter0_d_6_1132)">
<circle cx="11" cy="11" r="9" fill="#3C82C2"/>
</g>
<g clip-path="url(#clip0_6_1132)">
<path d="M13.8333 10.9999C13.8333 10.7237 13.6095 10.4999 13.3333 10.4999C13.0572 10.4999 12.8333 10.7237 12.8333 10.9999H13.8333ZM9.60738 14.8301C9.37641 14.6788 9.06648 14.7433 8.91513 14.9743C8.76377 15.2053 8.82831 15.5152 9.05929 15.6665L9.60738 14.8301ZM9.00811 7.56412L9.15407 7.46788L8.60361 6.63302L8.45765 6.72926L9.00811 7.56412ZM4.52227 11.6551C4.50817 11.4237 4.5 11.202 4.5 10.9999H3.5C3.5 11.2276 3.50916 11.4704 3.52412 11.7159L4.52227 11.6551ZM4.5 10.9999C4.5 10.7977 4.50817 10.576 4.52227 10.3447L3.52412 10.2839C3.50916 10.5293 3.5 10.7721 3.5 10.9999H4.5ZM12.8333 10.9999C12.8333 11.3411 12.8104 11.9672 12.7757 12.7136L13.7746 12.76C13.8091 12.0167 13.8333 11.3679 13.8333 10.9999H12.8333ZM7.00005 8.16654C7.32514 8.16654 7.54455 8.16814 7.76072 8.13164L7.59421 7.1456C7.47971 7.16493 7.35773 7.16654 7.00005 7.16654V8.16654ZM8.45765 6.72926C8.15904 6.92614 8.05632 6.99195 7.95009 7.03883L8.35385 7.9537C8.55442 7.86518 8.73671 7.74306 9.00811 7.56412L8.45765 6.72926ZM7.76072 8.13164C7.96504 8.09713 8.16427 8.03736 8.35385 7.9537L7.95009 7.03883C7.83635 7.08903 7.7168 7.12489 7.59421 7.1456L7.76072 8.13164ZM7.00005 14.8332C7.35773 14.8332 7.47971 14.8348 7.59421 14.8541L7.76072 13.8681C7.54455 13.8316 7.32514 13.8332 7.00005 13.8332V14.8332ZM7.00005 13.8332C6.03761 13.8332 5.71274 13.8223 5.43653 13.6945L5.01664 14.6021C5.53954 14.8441 6.13062 14.8332 7.00005 14.8332V13.8332ZM3.52412 11.7159C3.57099 12.4849 3.59339 13.014 3.86552 13.519L4.74587 13.0447C4.60035 12.7746 4.57363 12.4978 4.52227 11.6551L3.52412 11.7159ZM5.43653 13.6945C5.16963 13.5711 4.88536 13.3036 4.74587 13.0447L3.86552 13.519C4.10761 13.9683 4.55344 14.3878 5.01664 14.6021L5.43653 13.6945ZM12.7757 12.7136C12.7283 13.7341 12.694 14.4487 12.601 14.9653C12.5084 15.4795 12.3767 15.6759 12.2323 15.7774L12.8073 16.5956C13.278 16.2648 13.4773 15.7421 13.5852 15.1425C13.6927 14.5452 13.7285 13.7511 13.7746 12.76L12.7757 12.7136ZM12.2949 16.8563C12.4761 16.7945 12.6506 16.7057 12.8073 16.5956L12.2323 15.7774C12.1531 15.8331 12.0635 15.8787 11.9719 15.9099L12.2949 16.8563ZM9.15407 7.46788C10.0139 6.90094 10.6173 6.50434 11.0935 6.27304C11.5683 6.04236 11.8058 6.03311 11.9719 6.0898L12.2949 5.14338C11.7494 4.95725 11.2072 5.10604 10.6565 5.37355C10.1071 5.64043 9.43905 6.08218 8.60361 6.63302L9.15407 7.46788ZM11.9719 6.0898C12.0635 6.12106 12.1531 6.16666 12.2323 6.22232L12.8073 5.40415C12.6506 5.29403 12.4761 5.20524 12.2949 5.14338L11.9719 6.0898ZM7.00005 7.16654C6.13062 7.16654 5.53954 7.15568 5.01664 7.39761L5.43653 8.30518C5.71274 8.17739 6.03761 8.16654 7.00005 8.16654V7.16654ZM4.52227 10.3447C4.57363 9.50191 4.60035 9.22511 4.74587 8.95504L3.86552 8.4807C3.59339 8.98576 3.57099 9.51485 3.52412 10.2839L4.52227 10.3447ZM5.01664 7.39761C4.55344 7.61191 4.10761 8.0314 3.86552 8.4807L4.74587 8.95504C4.88536 8.69614 5.16963 8.42866 5.43653 8.30518L5.01664 7.39761ZM9.05929 15.6665C9.7518 16.1204 10.325 16.483 10.8136 16.6992C11.3085 16.9181 11.8002 17.0251 12.2949 16.8563L11.9719 15.9099C11.8216 15.9612 11.6125 15.9591 11.2181 15.7847C10.8176 15.6075 10.3132 15.2927 9.60738 14.8301L9.05929 15.6665ZM13.7487 8.6932C13.7083 7.8751 13.6642 7.20458 13.5513 6.68636C13.4368 6.16074 13.2335 5.70372 12.8073 5.40415L12.2323 6.22232C12.3629 6.31408 12.4836 6.48339 12.5743 6.89926C12.6665 7.32254 12.7087 7.90866 12.7499 8.74254L13.7487 8.6932Z" fill="white"/>
<path d="M16.3333 15C16.3333 15 17.3333 13.8 17.3333 11C17.3333 9.37771 16.9976 8.29254 16.7152 7.66666" stroke="white" stroke-linecap="round"/>
<path d="M15 13C15 13 15.3333 12.4 15.3333 11C15.3333 10.4254 15.2772 9.98559 15.211 9.66666" stroke="white" stroke-linecap="round"/>
<path d="M17.6666 4.33334L4.33331 17.6667" stroke="white" stroke-linecap="round"/>
</g>
<defs>
<filter id="filter0_d_6_1132" x="1" y="1" width="20" height="20" filterUnits="userSpaceOnUse" color-interpolation-filters="sRGB">
<feFlood flood-opacity="0" result="BackgroundImageFix"/>
<feColorMatrix in="SourceAlpha" type="matrix" values="0 0 0 0 0 0 0 0 0 0 0 0 0 0 0 0 0 0 127 0" result="hardAlpha"/>
<feOffset/>
<feGaussianBlur stdDeviation="0.5"/>
<feComposite in2="hardAlpha" operator="out"/>
<feColorMatrix type="matrix" values="0 0 0 0 0.235294 0 0 0 0 0.509804 0 0 0 0 0.760784 0 0 0 0.25 0"/>
<feBlend mode="normal" in2="BackgroundImageFix" result="effect1_dropShadow_6_1132"/>
<feBlend mode="normal" in="SourceGraphic" in2="effect1_dropShadow_6_1132" result="shape"/>
</filter>
<clipPath id="clip0_6_1132">
<rect width="16" height="16" fill="white" transform="translate(3 3)"/>
</clipPath>
</defs>
</svg>
