<svg width="300" height="510" viewBox="0 0 300 510" fill="none" xmlns="http://www.w3.org/2000/svg">
<g filter="url(#filter0_d_22_4971)">
<path fill-rule="evenodd" clip-rule="evenodd" d="M76.6047 98.4657C75.0482 94.1502 71.1125 91 66.5249 91H20C14.4771 91 10 95.4771 10 101V488C10 493.523 14.4771 498 20 498H280C285.523 498 290 493.523 290 488V101C290 95.4772 285.523 91 280 91H233.475C228.887 91 224.952 94.1502 223.395 98.4657C212.557 128.517 183.787 150 150 150C116.213 150 87.4428 128.517 76.6047 98.4657Z" fill="white"/>
</g>
<circle cx="150" cy="72" r="67" fill="#3472BA" stroke="white" stroke-width="10"/>
<path d="M193.098 51.1875C192.004 51.5412 190.839 51.7386 189.626 51.7386C183.419 51.7386 178.388 46.7191 178.388 40.5277C178.388 39.0808 178.672 37.7016 179.173 36.432L149.999 25L120.827 36.432C121.328 37.7026 121.612 39.0808 121.612 40.5277C121.612 46.7191 116.581 51.7386 110.374 51.7386C109.162 51.7386 107.996 51.5422 106.902 51.1875C102.672 68.9763 101.285 104.309 150 120C198.715 104.309 197.328 68.9763 193.098 51.1875Z" fill="url(#paint0_linear_22_4971)"/>
<path d="M125.516 57.1925V38.8765L120.826 36.4321C121.327 37.7026 121.611 39.0808 121.611 40.5277C121.611 46.7191 116.58 51.7386 110.373 51.7386C109.161 51.7386 107.995 51.5422 106.901 51.1875L110.03 55.7206L125.516 57.1925Z" fill="url(#paint1_linear_22_4971)"/>
<path d="M174.483 38.8765V61.0122H183.216L189.968 55.7206L193.097 51.1875C192.003 51.5412 190.838 51.7386 189.625 51.7386C183.419 51.7386 178.387 46.7191 178.387 40.5277C178.387 39.0808 178.671 37.7016 179.172 36.4321L174.483 38.8765Z" fill="url(#paint2_linear_22_4971)"/>
<path d="M150 115.803V120C198.715 104.309 197.327 68.9763 193.098 51.1875L189.969 55.7206L150 115.803Z" fill="url(#paint3_linear_22_4971)"/>
<path d="M149.999 115.803C109.09 102.087 106.753 73.7058 110.031 55.7206C110.145 55.7236 110.259 55.7246 110.373 55.7246C118.773 55.7246 125.607 48.9075 125.607 40.5277C125.607 39.9737 125.577 39.4236 125.516 38.8765L149.999 29.283L174.482 38.8765C174.421 39.4236 174.392 39.9747 174.392 40.5277C174.392 48.9075 181.226 55.7246 189.626 55.7246C189.74 55.7246 189.855 55.7236 189.968 55.7206C193.245 73.7058 190.909 102.087 149.999 115.803Z" fill="url(#paint4_linear_22_4971)"/>
<path opacity="0.9" d="M189.968 55.7206C189.968 55.7206 190.024 56.0276 190.128 56.6036C190.24 57.1776 190.372 58.0266 190.536 59.1078C190.685 60.191 190.843 61.5084 190.966 63.0281C191.065 64.5468 191.174 66.2668 191.113 68.1442C191.068 70.0197 190.953 72.0546 190.643 74.1861C190.337 76.3147 189.918 78.5529 189.25 80.809C188.591 83.0651 187.739 85.3471 186.687 87.5833C185.621 89.8135 184.328 91.9749 182.89 94.0338C181.44 96.0896 179.757 97.963 178.039 99.7368C177.141 100.586 176.283 101.463 175.346 102.231C174.885 102.624 174.436 103.024 173.973 103.402C173.501 103.767 173.032 104.129 172.566 104.49C170.702 105.924 168.794 107.165 166.955 108.286C165.1 109.381 163.313 110.359 161.62 111.175C159.947 112.033 158.345 112.675 156.945 113.279C155.52 113.823 154.29 114.332 153.255 114.69C151.183 115.4 150 115.806 150 115.806C150 115.806 151.173 115.371 153.226 114.611C154.251 114.228 155.467 113.69 156.875 113.113C157.577 112.817 158.303 112.455 159.079 112.1C159.855 111.744 160.674 111.375 161.5 110.934C163.18 110.106 164.952 109.117 166.789 108.012C168.61 106.88 170.497 105.63 172.337 104.19C172.795 103.83 173.259 103.465 173.725 103.099C174.173 102.709 174.623 102.319 175.078 101.925C176.002 101.156 176.845 100.278 177.728 99.4289C179.417 97.6581 181.066 95.7866 182.485 93.7448C183.925 91.7208 185.222 89.5933 186.296 87.394C187.355 85.1887 188.22 82.9345 188.892 80.7033C189.572 78.4721 190.008 76.2529 190.328 74.1413C190.654 72.0267 190.786 70.0037 190.847 68.1383C190.912 66.2718 190.849 64.5578 190.789 63.0411C190.703 61.5244 190.578 60.204 190.456 59.1198C190.318 58.0375 190.208 57.1865 190.109 56.6085C190.017 56.0296 189.968 55.7206 189.968 55.7206Z" fill="white"/>
<path d="M150 25V29.283L174.483 38.8765L179.173 36.432L150 25Z" fill="url(#paint5_linear_22_4971)"/>
<path d="M127.73 90.9714L122.73 59.907L140.419 68.2578L150 51.7037L159.582 68.2578L177.27 59.908L172.294 91.0143L127.73 90.9714Z" fill="#893B0C"/>
<path d="M176.598 60.8009L159.37 68.9335L150 52.744L140.63 68.9335L123.403 60.8009L128.176 90.4513L171.849 90.4941L176.598 60.8009Z" fill="url(#paint6_linear_22_4971)"/>
<path d="M131.303 86.7871L128.134 67.0939L142.116 73.6938L149.996 60.0784L157.875 73.6938L171.866 67.0879L168.71 86.8249L131.303 86.7871Z" fill="url(#paint7_linear_22_4971)"/>
<path d="M171.849 90.4941L168.71 86.8249L131.303 86.7871L128.176 90.4513L171.849 90.4941Z" fill="url(#paint8_linear_22_4971)"/>
<path d="M140.63 68.9335L142.116 73.6938L149.996 60.0784L150 52.744L140.63 68.9335Z" fill="#E8F983"/>
<path d="M150 52.744L149.996 60.0784L157.875 73.6938L159.37 68.9335L150 52.744Z" fill="url(#paint9_linear_22_4971)"/>
<path d="M176.598 60.8009L171.866 67.0879L168.71 86.8249L171.849 90.4941L176.598 60.8009Z" fill="url(#paint10_linear_22_4971)"/>
<g opacity="0.9">
<path d="M171.866 67.0879C171.866 67.0879 171.747 68.3336 171.512 70.1941C171.385 71.1228 171.257 72.208 171.081 73.367C170.907 74.5249 170.72 75.7596 170.535 76.9963C170.326 78.227 170.118 79.4597 169.922 80.6146C169.729 81.7696 169.51 82.8409 169.342 83.7636C168.986 85.6042 168.709 86.8249 168.709 86.8249C168.709 86.8249 168.827 85.5783 169.064 83.7188C169.192 82.79 169.317 81.7048 169.495 80.5459C169.669 79.3879 169.855 78.1532 170.041 76.9166C170.25 75.6849 170.458 74.4532 170.653 73.2982C170.847 72.1432 171.066 71.072 171.234 70.1492C171.591 68.3097 171.866 67.0879 171.866 67.0879Z" fill="white"/>
</g>
<path d="M123.403 60.8009L128.134 67.0939L142.117 73.6938L140.63 68.9335L123.403 60.8009Z" fill="url(#paint11_linear_22_4971)"/>
<path d="M173.432 77.6729C172.374 83.375 170.105 87.7447 168.368 87.4268C166.628 87.105 166.08 82.2151 167.146 76.506C168.209 70.797 170.475 66.4372 172.212 66.7611C173.949 67.079 174.494 71.9679 173.432 77.6729Z" fill="url(#paint12_radial_22_4971)"/>
<path opacity="0.4" d="M105.15 62.5827C105.44 58.3435 106.122 54.467 106.903 51.1875C107.996 51.5412 109.161 51.7386 110.374 51.7386C112.425 51.7386 114.342 51.1815 115.996 50.2238L174.082 108.167C169.94 111.218 165.031 114.04 159.241 116.539L105.15 62.5827ZM150 25L130.399 32.6812L189.118 91.2555C193.923 82.3715 195.227 73.086 194.968 64.9235L158.145 28.1918L150 25Z" fill="url(#paint13_linear_22_4971)"/>
<defs>
<filter id="filter0_d_22_4971" x="0" y="83" width="300" height="427" filterUnits="userSpaceOnUse" color-interpolation-filters="sRGB">
<feFlood flood-opacity="0" result="BackgroundImageFix"/>
<feColorMatrix in="SourceAlpha" type="matrix" values="0 0 0 0 0 0 0 0 0 0 0 0 0 0 0 0 0 0 127 0" result="hardAlpha"/>
<feOffset dy="2"/>
<feGaussianBlur stdDeviation="5"/>
<feComposite in2="hardAlpha" operator="out"/>
<feColorMatrix type="matrix" values="0 0 0 0 1 0 0 0 0 1 0 0 0 0 1 0 0 0 0.25 0"/>
<feBlend mode="normal" in2="BackgroundImageFix" result="effect1_dropShadow_22_4971"/>
<feBlend mode="normal" in="SourceGraphic" in2="effect1_dropShadow_22_4971" result="shape"/>
</filter>
<linearGradient id="paint0_linear_22_4971" x1="91.6359" y1="-18.5714" x2="184.224" y2="120.155" gradientUnits="userSpaceOnUse">
<stop stop-color="#AF6517"/>
<stop offset="0.257" stop-color="#E0A03B"/>
<stop offset="0.48" stop-color="#E9FF88"/>
<stop offset="0.6391" stop-color="#E0A03B"/>
<stop offset="1" stop-color="#88390B"/>
</linearGradient>
<linearGradient id="paint1_linear_22_4971" x1="130.615" y1="36.9719" x2="111.773" y2="59.6045" gradientUnits="userSpaceOnUse">
<stop stop-color="#AF6517"/>
<stop offset="0.257" stop-color="#E0A03B"/>
<stop offset="0.48" stop-color="#E9FF88"/>
<stop offset="0.6391" stop-color="#E0A03B"/>
<stop offset="1" stop-color="#88390B"/>
</linearGradient>
<linearGradient id="paint2_linear_22_4971" x1="173.092" y1="42.1899" x2="185.603" y2="58.5377" gradientUnits="userSpaceOnUse">
<stop stop-color="#AF6517"/>
<stop offset="0.257" stop-color="#E0A03B"/>
<stop offset="0.48" stop-color="#E9FF88"/>
<stop offset="0.6391" stop-color="#E0A03B"/>
<stop offset="1" stop-color="#88390B"/>
</linearGradient>
<linearGradient id="paint3_linear_22_4971" x1="192.388" y1="8.55944" x2="167.696" y2="115.878" gradientUnits="userSpaceOnUse">
<stop stop-color="#AF6517"/>
<stop offset="0.257" stop-color="#E0A03B"/>
<stop offset="0.48" stop-color="#E9FF88"/>
<stop offset="0.6391" stop-color="#E0A03B"/>
<stop offset="1" stop-color="#88390B"/>
</linearGradient>
<linearGradient id="paint4_linear_22_4971" x1="74.2272" y1="4.75007" x2="266.621" y2="173.303" gradientUnits="userSpaceOnUse">
<stop stop-color="#AF6517"/>
<stop offset="0.257" stop-color="#E0A03B"/>
<stop offset="0.48" stop-color="#E9FF88"/>
<stop offset="0.6391" stop-color="#E0A03B"/>
<stop offset="1" stop-color="#88390B"/>
</linearGradient>
<linearGradient id="paint5_linear_22_4971" x1="108.384" y1="13.1571" x2="197.993" y2="44.5604" gradientUnits="userSpaceOnUse">
<stop stop-color="#AF6517"/>
<stop offset="0.257" stop-color="#E0A03B"/>
<stop offset="0.48" stop-color="#E9FF88"/>
<stop offset="0.6391" stop-color="#E0A03B"/>
<stop offset="1" stop-color="#88390B"/>
</linearGradient>
<linearGradient id="paint6_linear_22_4971" x1="120.441" y1="68.106" x2="193.604" y2="81.8736" gradientUnits="userSpaceOnUse">
<stop stop-color="#AF6517"/>
<stop offset="0.257" stop-color="#E0A03B"/>
<stop offset="0.48" stop-color="#E9FF88"/>
<stop offset="0.6391" stop-color="#E0A03B"/>
<stop offset="1" stop-color="#88390B"/>
</linearGradient>
<linearGradient id="paint7_linear_22_4971" x1="115.004" y1="49.4806" x2="188.148" y2="104.654" gradientUnits="userSpaceOnUse">
<stop stop-color="#AF6517"/>
<stop offset="0.257" stop-color="#E0A03B"/>
<stop offset="0.48" stop-color="#E9FF88"/>
<stop offset="0.6391" stop-color="#E0A03B"/>
<stop offset="1" stop-color="#88390B"/>
</linearGradient>
<linearGradient id="paint8_linear_22_4971" x1="73.1867" y1="-2.99142" x2="142.534" y2="81.7932" gradientUnits="userSpaceOnUse">
<stop stop-color="#AF6517"/>
<stop offset="0.257" stop-color="#E0A03B"/>
<stop offset="0.48" stop-color="#E9FF88"/>
<stop offset="0.6391" stop-color="#E0A03B"/>
<stop offset="1" stop-color="#88390B"/>
</linearGradient>
<linearGradient id="paint9_linear_22_4971" x1="152.499" y1="59.3283" x2="167.413" y2="94.8564" gradientUnits="userSpaceOnUse">
<stop stop-color="#E0A03B"/>
<stop offset="1" stop-color="#88390B"/>
</linearGradient>
<linearGradient id="paint10_linear_22_4971" x1="154.03" y1="67.088" x2="189.466" y2="82.1823" gradientUnits="userSpaceOnUse">
<stop stop-color="#AF6517"/>
<stop offset="0.257" stop-color="#E0A03B"/>
<stop offset="0.48" stop-color="#E9FF88"/>
<stop offset="0.6391" stop-color="#E0A03B"/>
<stop offset="1" stop-color="#88390B"/>
</linearGradient>
<linearGradient id="paint11_linear_22_4971" x1="114.606" y1="57.251" x2="141.274" y2="71.8368" gradientUnits="userSpaceOnUse">
<stop stop-color="#AF6517"/>
<stop offset="0.257" stop-color="#E0A03B"/>
<stop offset="0.48" stop-color="#E9FF88"/>
<stop offset="0.6391" stop-color="#E0A03B"/>
<stop offset="1" stop-color="#88390B"/>
</linearGradient>
<radialGradient id="paint12_radial_22_4971" cx="0" cy="0" r="1" gradientUnits="userSpaceOnUse" gradientTransform="translate(170.286 77.2428) rotate(10.5073) scale(2.80414 9.66995)">
<stop stop-color="white"/>
<stop offset="1" stop-color="white" stop-opacity="0"/>
</radialGradient>
<linearGradient id="paint13_linear_22_4971" x1="98.9852" y1="70.3551" x2="199.258" y2="71.1062" gradientUnits="userSpaceOnUse">
<stop stop-color="white"/>
<stop offset="1" stop-color="#FAF7F5" stop-opacity="0"/>
</linearGradient>
</defs>
</svg>
