<svg width="300" height="510" viewBox="0 0 300 510" fill="none" xmlns="http://www.w3.org/2000/svg">
<g filter="url(#filter0_d_22_4974)">
<path fill-rule="evenodd" clip-rule="evenodd" d="M76.6047 98.4657C75.0482 94.1502 71.1125 91 66.5249 91H20C14.4771 91 10 95.4771 10 101V488C10 493.523 14.4771 498 20 498H280C285.523 498 290 493.523 290 488V101C290 95.4772 285.523 91 280 91H233.475C228.887 91 224.952 94.1502 223.395 98.4657C212.557 128.517 183.787 150 150 150C116.213 150 87.4428 128.517 76.6047 98.4657Z" fill="white"/>
</g>
<circle cx="150" cy="72" r="67" fill="#3472BA" stroke="white" stroke-width="10"/>
<path d="M150 113C172.644 113 191 94.6437 191 72C191 49.3563 172.644 31 150 31C127.356 31 109 49.3563 109 72C109 94.6437 127.356 113 150 113Z" fill="#F51A51"/>
<path d="M191 72.5498C191 83.2779 186.68 93.5666 178.991 101.152C171.302 108.738 160.874 113 150 113C139.126 113 128.698 108.738 121.009 101.152C113.32 93.5666 109 83.2779 109 72.5498C109.001 70.8432 109.108 69.1383 109.318 67.4445C110.575 77.2139 115.401 86.1956 122.89 92.7059C130.379 99.2162 140.018 102.808 150 102.808C159.982 102.808 169.621 99.2162 177.11 92.7059C184.599 86.1956 189.425 77.2139 190.682 67.4445C190.892 69.1383 190.999 70.8432 191 72.5498Z" fill="#F56C8E"/>
<path d="M165.121 50.2072L130.677 84.6512L137.364 91.3387L171.808 56.8946L165.121 50.2072Z" fill="white"/>
<path d="M173.391 86.1566L137.998 50.7637L131.311 57.4512L166.704 92.844L173.391 86.1566Z" fill="white"/>
<path d="M121.783 64.1011C121.783 64.172 121.72 64.3375 121.87 63.6125C122.02 62.8874 122.224 61.9495 122.453 61.1299C123.109 58.7598 124.09 56.492 125.369 54.3914C129.924 46.9673 137.774 44.1459 146.215 44.3981C149.257 44.4848 149.257 39.756 146.215 39.6693C136.553 39.3935 127.544 42.8218 121.972 50.9474C119.299 54.8727 117.612 59.3849 117.054 64.1011C116.723 67.1196 121.46 67.0959 121.783 64.1011Z" fill="#F9F9F9"/>
<defs>
<filter id="filter0_d_22_4974" x="0" y="83" width="300" height="427" filterUnits="userSpaceOnUse" color-interpolation-filters="sRGB">
<feFlood flood-opacity="0" result="BackgroundImageFix"/>
<feColorMatrix in="SourceAlpha" type="matrix" values="0 0 0 0 0 0 0 0 0 0 0 0 0 0 0 0 0 0 127 0" result="hardAlpha"/>
<feOffset dy="2"/>
<feGaussianBlur stdDeviation="5"/>
<feComposite in2="hardAlpha" operator="out"/>
<feColorMatrix type="matrix" values="0 0 0 0 1 0 0 0 0 1 0 0 0 0 1 0 0 0 0.25 0"/>
<feBlend mode="normal" in2="BackgroundImageFix" result="effect1_dropShadow_22_4974"/>
<feBlend mode="normal" in="SourceGraphic" in2="effect1_dropShadow_22_4974" result="shape"/>
</filter>
</defs>
</svg>
