<svg width="72" height="72" viewBox="0 0 72 72" fill="none" xmlns="http://www.w3.org/2000/svg">
<g clip-path="url(#clip0_6_1433)">
<path d="M59.8991 48.4285V56.1392C59.8991 57.8639 59.2139 59.518 57.9944 60.7376C56.7748 61.9572 55.1207 62.6423 53.3959 62.6423H19.6605C17.9373 62.6405 16.2852 61.9548 15.0672 60.7358C13.8492 59.5168 13.1648 57.8641 13.1643 56.1409V7.54117C13.1643 5.81673 13.8492 4.16289 15.0684 2.94336C16.2876 1.72384 17.9413 1.03848 19.6657 1.03802H53.4011C55.1259 1.03802 56.78 1.72318 57.9995 2.94275C59.2191 4.16233 59.9043 5.81643 59.9043 7.54117V21.2793" fill="white"/>
<path d="M13.038 55.9367V52.1047C13.038 53.8295 13.7231 55.4836 14.9427 56.7032C16.1623 57.9227 17.8164 58.6079 19.5411 58.6079H53.2765C55.0013 58.6079 56.6554 57.9227 57.8749 56.7032C59.0945 55.4836 59.7797 53.8295 59.7797 52.1047V55.9367C59.7797 57.6615 59.0945 59.3156 57.8749 60.5352C56.6554 61.7547 55.0013 62.4399 53.2765 62.4399H19.5411C17.8164 62.4399 16.1623 61.7547 14.9427 60.5352C13.7231 59.3156 13.038 57.6615 13.038 55.9367Z" fill="#E7E7E7"/>
<path d="M36.4055 71.135C41.3261 71.135 45.3151 67.146 45.3151 62.2254C45.3151 57.3048 41.3261 53.3158 36.4055 53.3158C31.4848 53.3158 27.4958 57.3048 27.4958 62.2254C27.4958 67.146 31.4848 71.135 36.4055 71.135Z" fill="#19E08D"/>
<path d="M44.9015 61.7064C44.9015 64.0693 43.9628 66.3355 42.2919 68.0064C40.6211 69.6773 38.3549 70.616 35.9919 70.616C33.6289 70.616 31.3627 69.6773 29.6918 68.0064C28.021 66.3355 27.0823 64.0693 27.0823 61.7064C27.0825 61.3305 27.1057 60.9549 27.1515 60.5818C27.4246 62.7337 28.4732 64.712 30.1007 66.146C31.7282 67.5799 33.8228 68.3711 35.9919 68.3711C38.161 68.3711 40.2556 67.5799 41.8831 66.146C43.5106 64.712 44.5592 62.7337 44.8323 60.5818C44.8781 60.9549 44.9012 61.3305 44.9015 61.7064Z" fill="#7EE0B7"/>
<path d="M53.2714 63.6803H47.7474V61.6043H53.2714C54.7204 61.6029 56.1097 61.0267 57.1343 60.0021C58.1589 58.9775 58.7351 57.5882 58.7365 56.1392V7.54116C58.7351 6.09214 58.1589 4.70286 57.1343 3.67824C56.1097 2.65363 54.7204 2.0774 53.2714 2.07602H19.536C18.0878 2.07877 16.6999 2.65561 15.6764 3.68007C14.6529 4.70454 14.0774 6.09303 14.076 7.54116V56.1409C14.0774 57.5899 14.6536 58.9792 15.6782 60.0038C16.7029 61.0284 18.0921 61.6047 19.5412 61.606H25.4232V63.682H19.5412C17.5418 63.6798 15.625 62.8845 14.2113 61.4708C12.7975 60.057 12.0023 58.1402 12 56.1409V7.54116C12.0023 5.54182 12.7975 3.62503 14.2113 2.21128C15.625 0.797537 17.5418 0.00228941 19.5412 0L53.2766 0C55.2759 0.00228941 57.1927 0.797537 58.6064 2.21128C60.0202 3.62503 60.8154 5.54182 60.8177 7.54116V56.1409C60.815 58.1408 60.0188 60.058 58.604 61.4715C57.1892 62.885 55.2713 63.6794 53.2714 63.6803Z" fill="#54BAE0"/>
<path d="M44.3635 28.1007H28.4473V30.1767H44.3635V28.1007Z" fill="#54BAE0"/>
<path d="M44.3635 33.1108H28.4473V35.1869H44.3635V33.1108Z" fill="#54BAE0"/>
<path d="M44.3635 38.1227H28.4473V40.1988H44.3635V38.1227Z" fill="#54BAE0"/>
<path d="M36.4054 72C34.4379 72 32.5147 71.4166 30.8788 70.3235C29.2429 69.2304 27.9679 67.6768 27.215 65.8591C26.4621 64.0415 26.2651 62.0413 26.6489 60.1117C27.0327 58.182 27.9802 56.4095 29.3714 55.0183C30.7626 53.6271 32.5351 52.6797 34.4647 52.2959C36.3944 51.9121 38.3945 52.109 40.2122 52.862C42.0299 53.6149 43.5835 54.8899 44.6765 56.5258C45.7696 58.1616 46.353 60.0849 46.353 62.0524C46.3503 64.6898 45.3013 67.2184 43.4364 69.0834C41.5714 70.9483 39.0428 71.9972 36.4054 72ZM36.4054 54.1808C34.8485 54.1808 33.3266 54.6424 32.0322 55.5074C30.7377 56.3723 29.7288 57.6017 29.133 59.04C28.5372 60.4784 28.3813 62.0611 28.685 63.588C28.9888 65.115 29.7385 66.5176 30.8393 67.6184C31.9402 68.7193 33.3428 69.469 34.8697 69.7727C36.3967 70.0764 37.9794 69.9205 39.4177 69.3248C40.8561 68.729 42.0854 67.7201 42.9504 66.4256C43.8153 65.1311 44.277 63.6092 44.277 62.0524C44.2747 59.9654 43.4446 57.9645 41.9689 56.4888C40.4932 55.0131 38.4924 54.1831 36.4054 54.1808Z" fill="#54BAE0"/>
<path d="M35.5577 68.2285L31.3849 64.2772L32.8122 62.7686L35.2152 65.0453L40.0644 57.9211L41.7806 59.0906L35.5577 68.2285Z" fill="white"/>
<path d="M30.8883 60.5819C30.8883 60.5975 30.8745 60.6338 30.9074 60.4746C30.9402 60.3155 30.9852 60.1096 31.0354 59.9297C31.1794 59.4094 31.3948 58.9116 31.6755 58.4505C32.6754 56.8208 34.3985 56.2015 36.2514 56.2568C36.9192 56.2759 36.9192 55.2379 36.2514 55.2188C34.1304 55.1583 32.153 55.9108 30.9298 57.6945C30.3431 58.5561 29.9728 59.5466 29.8503 60.5819C29.7777 61.2445 30.8174 61.2393 30.8883 60.5819Z" fill="#F9F9F9"/>
<g opacity="0.5">
<path d="M18.0049 6.21941H24.0219C24.6897 6.21941 24.6914 5.1814 24.0219 5.1814H18.0049C17.3371 5.1814 17.3354 6.21941 18.0049 6.21941Z" fill="#7490A8"/>
<path d="M26.5114 6.21941H41.4484C42.1162 6.21941 42.1179 5.1814 41.4484 5.1814H26.5114C25.8436 5.1814 25.8419 6.21941 26.5114 6.21941Z" fill="#7490A8"/>
</g>
<path d="M51.6964 18.3262H51.087V21.0859C51.087 21.4492 51.007 21.7168 50.8468 21.8887C50.6866 22.0605 50.4777 22.1465 50.2198 22.1465C49.9425 22.1465 49.7277 22.0566 49.5753 21.877C49.423 21.6973 49.3468 21.4336 49.3468 21.0859V14.4766C49.3468 14.1016 49.4308 13.8301 49.5988 13.6621C49.7667 13.4941 50.0382 13.4102 50.4132 13.4102H53.2433C53.6339 13.4102 53.9679 13.4277 54.2452 13.4629C54.5226 13.4941 54.7726 13.5605 54.9952 13.6621C55.2648 13.7754 55.5031 13.9375 55.7101 14.1484C55.9171 14.3594 56.0734 14.6055 56.1788 14.8867C56.2882 15.1641 56.3429 15.459 56.3429 15.7715C56.3429 16.4121 56.1613 16.9238 55.798 17.3066C55.4386 17.6895 54.8917 17.9609 54.1573 18.1211C54.4659 18.2852 54.7609 18.5273 55.0421 18.8477C55.3234 19.168 55.5734 19.5098 55.7921 19.873C56.0148 20.2324 56.1866 20.5586 56.3077 20.8516C56.4327 21.1406 56.4952 21.3398 56.4952 21.4492C56.4952 21.5625 56.4581 21.6758 56.3839 21.7891C56.3136 21.8984 56.2159 21.9844 56.0909 22.0469C55.9659 22.1133 55.8214 22.1465 55.6573 22.1465C55.462 22.1465 55.298 22.0996 55.1652 22.0059C55.0323 21.916 54.9171 21.8008 54.8195 21.6602C54.7257 21.5195 54.5968 21.3125 54.4327 21.0391L53.7355 19.8789C53.4855 19.4531 53.2609 19.1289 53.0616 18.9062C52.8663 18.6836 52.6671 18.5312 52.464 18.4492C52.2609 18.3672 52.005 18.3262 51.6964 18.3262ZM52.6925 14.7168H51.087V17.0781H52.6456C53.0636 17.0781 53.4152 17.043 53.7003 16.9727C53.9855 16.8984 54.2023 16.7754 54.3507 16.6035C54.5031 16.4277 54.5792 16.1875 54.5792 15.8828C54.5792 15.6445 54.5187 15.4355 54.3976 15.2559C54.2765 15.0723 54.1085 14.9355 53.8937 14.8457C53.6906 14.7598 53.2902 14.7168 52.6925 14.7168Z" fill="#54BAE0"/>
<path d="M47.0148 14.752H43.0948V16.8613H46.7042C46.9698 16.8613 47.1671 16.9219 47.296 17.043C47.4288 17.1602 47.4952 17.3164 47.4952 17.5117C47.4952 17.707 47.4308 17.8672 47.3019 17.9922C47.173 18.1133 46.9738 18.1738 46.7042 18.1738H43.0948V20.6172H47.1495C47.423 20.6172 47.6281 20.6816 47.7648 20.8105C47.9054 20.9355 47.9757 21.1035 47.9757 21.3145C47.9757 21.5176 47.9054 21.6836 47.7648 21.8125C47.6281 21.9375 47.423 22 47.1495 22H42.421C42.0421 22 41.7687 21.916 41.6007 21.748C41.4366 21.5801 41.3546 21.3086 41.3546 20.9336V14.4766C41.3546 14.2266 41.3917 14.0234 41.4659 13.8672C41.5402 13.707 41.6554 13.5918 41.8116 13.5215C41.9718 13.4473 42.1749 13.4102 42.421 13.4102H47.0148C47.2921 13.4102 47.4972 13.4727 47.63 13.5977C47.7667 13.7188 47.8351 13.8789 47.8351 14.0781C47.8351 14.2812 47.7667 14.4453 47.63 14.5703C47.4972 14.6914 47.2921 14.752 47.0148 14.752Z" fill="#54BAE0"/>
<path d="M39.2335 14.752H35.8058V16.9492H38.671C38.9366 16.9492 39.1339 17.0098 39.2628 17.1309C39.3956 17.248 39.462 17.4062 39.462 17.6055C39.462 17.8047 39.3956 17.9629 39.2628 18.0801C39.13 18.1973 38.9327 18.2559 38.671 18.2559H35.8058V21.0859C35.8058 21.4453 35.7238 21.7129 35.5597 21.8887C35.3995 22.0605 35.1925 22.1465 34.9386 22.1465C34.6808 22.1465 34.4698 22.0586 34.3058 21.8828C34.1456 21.707 34.0656 21.4414 34.0656 21.0859V14.4766C34.0656 14.2266 34.1027 14.0234 34.1769 13.8672C34.2511 13.707 34.3663 13.5918 34.5226 13.5215C34.6827 13.4473 34.8859 13.4102 35.132 13.4102H39.2335C39.5109 13.4102 39.7159 13.4727 39.8488 13.5977C39.9855 13.7188 40.0538 13.8789 40.0538 14.0781C40.0538 14.2812 39.9855 14.4453 39.8488 14.5703C39.7159 14.6914 39.5109 14.752 39.2335 14.752Z" fill="#54BAE0"/>
<path d="M31.9796 14.752H28.5519V16.9492H31.4171C31.6827 16.9492 31.88 17.0098 32.0089 17.1309C32.1417 17.248 32.2081 17.4062 32.2081 17.6055C32.2081 17.8047 32.1417 17.9629 32.0089 18.0801C31.8761 18.1973 31.6788 18.2559 31.4171 18.2559H28.5519V21.0859C28.5519 21.4453 28.4698 21.7129 28.3058 21.8887C28.1456 22.0605 27.9386 22.1465 27.6847 22.1465C27.4269 22.1465 27.2159 22.0586 27.0519 21.8828C26.8917 21.707 26.8116 21.4414 26.8116 21.0859V14.4766C26.8116 14.2266 26.8488 14.0234 26.923 13.8672C26.9972 13.707 27.1124 13.5918 27.2687 13.5215C27.4288 13.4473 27.632 13.4102 27.8781 13.4102H31.9796C32.257 13.4102 32.462 13.4727 32.5948 13.5977C32.7316 13.7188 32.7999 13.8789 32.7999 14.0781C32.7999 14.2812 32.7316 14.4453 32.5948 14.5703C32.462 14.6914 32.257 14.752 31.9796 14.752Z" fill="#54BAE0"/>
<path d="M21.1222 13.2637C22.0128 13.2637 22.7765 13.4453 23.4132 13.8086C24.0538 14.168 24.5382 14.6816 24.8663 15.3496C25.1945 16.0137 25.3585 16.7949 25.3585 17.6934C25.3585 18.3574 25.2687 18.9609 25.089 19.5039C24.9093 20.0469 24.6398 20.5176 24.2804 20.916C23.921 21.3145 23.4796 21.6191 22.9562 21.8301C22.4327 22.041 21.8331 22.1465 21.1573 22.1465C20.4855 22.1465 19.8839 22.0391 19.3527 21.8242C18.8214 21.6055 18.3781 21.2988 18.0226 20.9043C17.6671 20.5098 17.3976 20.0352 17.214 19.4805C17.0343 18.9258 16.9445 18.3262 16.9445 17.6816C16.9445 17.0215 17.0382 16.416 17.2257 15.8652C17.4171 15.3145 17.6925 14.8457 18.0519 14.459C18.4113 14.0723 18.8488 13.7773 19.3644 13.5742C19.88 13.3672 20.4659 13.2637 21.1222 13.2637ZM23.5948 17.6816C23.5948 17.0527 23.4933 16.5078 23.2902 16.0469C23.087 15.5859 22.796 15.2383 22.4171 15.0039C22.0421 14.7656 21.6105 14.6465 21.1222 14.6465C20.7745 14.6465 20.4523 14.7129 20.1554 14.8457C19.8624 14.9746 19.6085 15.1641 19.3937 15.4141C19.1827 15.6641 19.0148 15.9844 18.8898 16.375C18.7687 16.7617 18.7081 17.1973 18.7081 17.6816C18.7081 18.1699 18.7687 18.6113 18.8898 19.0059C19.0148 19.4004 19.1886 19.7285 19.4113 19.9902C19.6378 20.248 19.8956 20.4414 20.1847 20.5703C20.4777 20.6992 20.798 20.7637 21.1456 20.7637C21.5909 20.7637 21.9991 20.6523 22.3702 20.4297C22.7452 20.207 23.0421 19.8633 23.2609 19.3984C23.4835 18.9336 23.5948 18.3613 23.5948 17.6816Z" fill="#54BAE0"/>
</g>
<defs>
<clipPath id="clip0_6_1433">
<rect width="72" height="72" fill="white"/>
</clipPath>
</defs>
</svg>
