<svg width="72" height="72" viewBox="0 0 72 72" fill="none" xmlns="http://www.w3.org/2000/svg">
<path d="M59.8991 52.4285V60.1392C59.8991 61.8639 59.2139 63.518 57.9944 64.7376C56.7748 65.9572 55.1207 66.6423 53.3959 66.6423H19.6605C17.9373 66.6405 16.2852 65.9548 15.0672 64.7358C13.8492 63.5168 13.1648 61.8641 13.1643 60.1409V11.5412C13.1643 9.81673 13.8492 8.16289 15.0684 6.94336C16.2876 5.72384 17.9413 5.03848 19.6657 5.03802H53.4011C55.1259 5.03802 56.78 5.72318 57.9995 6.94275C59.2191 8.16233 59.9043 9.81643 59.9043 11.5412V25.2793" fill="white"/>
<path d="M13.038 59.9367V56.1047C13.038 57.8295 13.7231 59.4836 14.9427 60.7032C16.1623 61.9227 17.8164 62.6079 19.5411 62.6079H53.2765C55.0013 62.6079 56.6554 61.9227 57.8749 60.7032C59.0945 59.4836 59.7797 57.8295 59.7797 56.1047V59.9367C59.7797 61.6615 59.0945 63.3156 57.8749 64.5352C56.6554 65.7547 55.0013 66.4399 53.2765 66.4399H19.5411C17.8164 66.4399 16.1623 65.7547 14.9427 64.5352C13.7231 63.3156 13.038 61.6615 13.038 59.9367Z" fill="#E7E7E7"/>
<path d="M53.2714 67.6803H47.7474V65.6043H53.2714C54.7204 65.6029 56.1097 65.0267 57.1343 64.0021C58.1589 62.9775 58.7351 61.5882 58.7365 60.1392V11.5412C58.7351 10.0921 58.1589 8.70286 57.1343 7.67824C56.1097 6.65363 54.7204 6.0774 53.2714 6.07602H19.536C18.0878 6.07877 16.6999 6.65561 15.6764 7.68007C14.6529 8.70454 14.0774 10.093 14.076 11.5412V60.1409C14.0774 61.5899 14.6536 62.9792 15.6782 64.0038C16.7029 65.0284 18.0921 65.6047 19.5412 65.606L47.7474 65.606V67.6821L19.5412 67.6821C17.5418 67.6798 15.625 66.8845 14.2113 65.4708C12.7975 64.057 12.0023 62.1402 12 60.1409V11.5412C12.0023 9.54182 12.7975 7.62503 14.2113 6.21128C15.625 4.79754 17.5418 4.00229 19.5412 4L53.2766 4C55.2759 4.00229 57.1927 4.79754 58.6064 6.21128C60.0202 7.62503 60.8154 9.54182 60.8177 11.5412V60.1409C60.815 62.1408 60.0188 64.058 58.604 65.4715C57.1892 66.885 55.2713 67.6794 53.2714 67.6803Z" fill="#54BAE0"/>
<path d="M44.3635 32.1007H28.4473V34.1767H44.3635V32.1007Z" fill="#54BAE0"/>
<path d="M44.3635 37.1108H28.4473V39.1869H44.3635V37.1108Z" fill="#54BAE0"/>
<path d="M44.3635 42.1227H28.4473V44.1988H44.3635V42.1227Z" fill="#54BAE0"/>
<g opacity="0.5">
<path d="M18.0049 10.2194H24.0219C24.6897 10.2194 24.6914 9.1814 24.0219 9.1814H18.0049C17.3371 9.1814 17.3354 10.2194 18.0049 10.2194Z" fill="#7490A8"/>
<path d="M26.5114 10.2194H41.4484C42.1162 10.2194 42.1179 9.1814 41.4484 9.1814H26.5114C25.8436 9.1814 25.8419 10.2194 26.5114 10.2194Z" fill="#7490A8"/>
</g>
<path d="M51.6964 22.3262H51.087V25.0859C51.087 25.4492 51.007 25.7168 50.8468 25.8887C50.6866 26.0605 50.4777 26.1465 50.2198 26.1465C49.9425 26.1465 49.7277 26.0566 49.5753 25.877C49.423 25.6973 49.3468 25.4336 49.3468 25.0859V18.4766C49.3468 18.1016 49.4308 17.8301 49.5988 17.6621C49.7667 17.4941 50.0382 17.4102 50.4132 17.4102H53.2433C53.6339 17.4102 53.9679 17.4277 54.2452 17.4629C54.5226 17.4941 54.7726 17.5605 54.9952 17.6621C55.2648 17.7754 55.5031 17.9375 55.7101 18.1484C55.9171 18.3594 56.0734 18.6055 56.1788 18.8867C56.2882 19.1641 56.3429 19.459 56.3429 19.7715C56.3429 20.4121 56.1613 20.9238 55.798 21.3066C55.4386 21.6895 54.8917 21.9609 54.1573 22.1211C54.4659 22.2852 54.7609 22.5273 55.0421 22.8477C55.3234 23.168 55.5734 23.5098 55.7921 23.873C56.0148 24.2324 56.1866 24.5586 56.3077 24.8516C56.4327 25.1406 56.4952 25.3398 56.4952 25.4492C56.4952 25.5625 56.4581 25.6758 56.3839 25.7891C56.3136 25.8984 56.2159 25.9844 56.0909 26.0469C55.9659 26.1133 55.8214 26.1465 55.6573 26.1465C55.462 26.1465 55.298 26.0996 55.1652 26.0059C55.0323 25.916 54.9171 25.8008 54.8195 25.6602C54.7257 25.5195 54.5968 25.3125 54.4327 25.0391L53.7355 23.8789C53.4855 23.4531 53.2609 23.1289 53.0616 22.9062C52.8663 22.6836 52.6671 22.5312 52.464 22.4492C52.2609 22.3672 52.005 22.3262 51.6964 22.3262ZM52.6925 18.7168H51.087V21.0781H52.6456C53.0636 21.0781 53.4152 21.043 53.7003 20.9727C53.9855 20.8984 54.2023 20.7754 54.3507 20.6035C54.5031 20.4277 54.5792 20.1875 54.5792 19.8828C54.5792 19.6445 54.5187 19.4355 54.3976 19.2559C54.2765 19.0723 54.1085 18.9355 53.8937 18.8457C53.6906 18.7598 53.2902 18.7168 52.6925 18.7168Z" fill="#54BAE0"/>
<path d="M47.0148 18.752H43.0948V20.8613H46.7042C46.9698 20.8613 47.1671 20.9219 47.296 21.043C47.4288 21.1602 47.4952 21.3164 47.4952 21.5117C47.4952 21.707 47.4308 21.8672 47.3019 21.9922C47.173 22.1133 46.9738 22.1738 46.7042 22.1738H43.0948V24.6172H47.1495C47.423 24.6172 47.6281 24.6816 47.7648 24.8105C47.9054 24.9355 47.9757 25.1035 47.9757 25.3145C47.9757 25.5176 47.9054 25.6836 47.7648 25.8125C47.6281 25.9375 47.423 26 47.1495 26H42.421C42.0421 26 41.7687 25.916 41.6007 25.748C41.4366 25.5801 41.3546 25.3086 41.3546 24.9336V18.4766C41.3546 18.2266 41.3917 18.0234 41.4659 17.8672C41.5402 17.707 41.6554 17.5918 41.8116 17.5215C41.9718 17.4473 42.1749 17.4102 42.421 17.4102H47.0148C47.2921 17.4102 47.4972 17.4727 47.63 17.5977C47.7667 17.7188 47.8351 17.8789 47.8351 18.0781C47.8351 18.2812 47.7667 18.4453 47.63 18.5703C47.4972 18.6914 47.2921 18.752 47.0148 18.752Z" fill="#54BAE0"/>
<path d="M39.2335 18.752H35.8058V20.9492H38.671C38.9366 20.9492 39.1339 21.0098 39.2628 21.1309C39.3956 21.248 39.462 21.4062 39.462 21.6055C39.462 21.8047 39.3956 21.9629 39.2628 22.0801C39.13 22.1973 38.9327 22.2559 38.671 22.2559H35.8058V25.0859C35.8058 25.4453 35.7238 25.7129 35.5597 25.8887C35.3995 26.0605 35.1925 26.1465 34.9386 26.1465C34.6808 26.1465 34.4698 26.0586 34.3058 25.8828C34.1456 25.707 34.0656 25.4414 34.0656 25.0859V18.4766C34.0656 18.2266 34.1027 18.0234 34.1769 17.8672C34.2511 17.707 34.3663 17.5918 34.5226 17.5215C34.6827 17.4473 34.8859 17.4102 35.132 17.4102H39.2335C39.5109 17.4102 39.7159 17.4727 39.8488 17.5977C39.9855 17.7188 40.0538 17.8789 40.0538 18.0781C40.0538 18.2812 39.9855 18.4453 39.8488 18.5703C39.7159 18.6914 39.5109 18.752 39.2335 18.752Z" fill="#54BAE0"/>
<path d="M31.9796 18.752H28.5519V20.9492H31.4171C31.6827 20.9492 31.88 21.0098 32.0089 21.1309C32.1417 21.248 32.2081 21.4062 32.2081 21.6055C32.2081 21.8047 32.1417 21.9629 32.0089 22.0801C31.8761 22.1973 31.6788 22.2559 31.4171 22.2559H28.5519V25.0859C28.5519 25.4453 28.4698 25.7129 28.3058 25.8887C28.1456 26.0605 27.9386 26.1465 27.6847 26.1465C27.4269 26.1465 27.2159 26.0586 27.0519 25.8828C26.8917 25.707 26.8116 25.4414 26.8116 25.0859V18.4766C26.8116 18.2266 26.8488 18.0234 26.923 17.8672C26.9972 17.707 27.1124 17.5918 27.2687 17.5215C27.4288 17.4473 27.632 17.4102 27.8781 17.4102H31.9796C32.257 17.4102 32.462 17.4727 32.5948 17.5977C32.7316 17.7188 32.7999 17.8789 32.7999 18.0781C32.7999 18.2812 32.7316 18.4453 32.5948 18.5703C32.462 18.6914 32.257 18.752 31.9796 18.752Z" fill="#54BAE0"/>
<path d="M21.1222 17.2637C22.0128 17.2637 22.7765 17.4453 23.4132 17.8086C24.0538 18.168 24.5382 18.6816 24.8663 19.3496C25.1945 20.0137 25.3585 20.7949 25.3585 21.6934C25.3585 22.3574 25.2687 22.9609 25.089 23.5039C24.9093 24.0469 24.6398 24.5176 24.2804 24.916C23.921 25.3145 23.4796 25.6191 22.9562 25.8301C22.4327 26.041 21.8331 26.1465 21.1573 26.1465C20.4855 26.1465 19.8839 26.0391 19.3527 25.8242C18.8214 25.6055 18.3781 25.2988 18.0226 24.9043C17.6671 24.5098 17.3976 24.0352 17.214 23.4805C17.0343 22.9258 16.9445 22.3262 16.9445 21.6816C16.9445 21.0215 17.0382 20.416 17.2257 19.8652C17.4171 19.3145 17.6925 18.8457 18.0519 18.459C18.4113 18.0723 18.8488 17.7773 19.3644 17.5742C19.88 17.3672 20.4659 17.2637 21.1222 17.2637ZM23.5948 21.6816C23.5948 21.0527 23.4933 20.5078 23.2902 20.0469C23.087 19.5859 22.796 19.2383 22.4171 19.0039C22.0421 18.7656 21.6105 18.6465 21.1222 18.6465C20.7745 18.6465 20.4523 18.7129 20.1554 18.8457C19.8624 18.9746 19.6085 19.1641 19.3937 19.4141C19.1827 19.6641 19.0148 19.9844 18.8898 20.375C18.7687 20.7617 18.7081 21.1973 18.7081 21.6816C18.7081 22.1699 18.7687 22.6113 18.8898 23.0059C19.0148 23.4004 19.1886 23.7285 19.4113 23.9902C19.6378 24.248 19.8956 24.4414 20.1847 24.5703C20.4777 24.6992 20.798 24.7637 21.1456 24.7637C21.5909 24.7637 21.9991 24.6523 22.3702 24.4297C22.7452 24.207 23.0421 23.8633 23.2609 23.3984C23.4835 22.9336 23.5948 22.3613 23.5948 21.6816Z" fill="#54BAE0"/>
</svg>
