<svg width="0" height="0" class="hidden">
  <symbol fill="none" xmlns="http://www.w3.org/2000/svg" viewBox="0 0 72 72" id="caught-offer">
    <g clip-path="url(#clip0_6_1433)">
      <path d="M59.8991 48.4285V56.1392C59.8991 57.8639 59.2139 59.518 57.9944 60.7376C56.7748 61.9572 55.1207 62.6423 53.3959 62.6423H19.6605C17.9373 62.6405 16.2852 61.9548 15.0672 60.7358C13.8492 59.5168 13.1648 57.8641 13.1643 56.1409V7.54117C13.1643 5.81673 13.8492 4.16289 15.0684 2.94336C16.2876 1.72384 17.9413 1.03848 19.6657 1.03802H53.4011C55.1259 1.03802 56.78 1.72318 57.9995 2.94275C59.2191 4.16233 59.9043 5.81643 59.9043 7.54117V21.2793" fill="white"></path>
      <path d="M13.038 55.9367V52.1047C13.038 53.8295 13.7231 55.4836 14.9427 56.7032C16.1623 57.9227 17.8164 58.6079 19.5411 58.6079H53.2765C55.0013 58.6079 56.6554 57.9227 57.8749 56.7032C59.0945 55.4836 59.7797 53.8295 59.7797 52.1047V55.9367C59.7797 57.6615 59.0945 59.3156 57.8749 60.5352C56.6554 61.7547 55.0013 62.4399 53.2765 62.4399H19.5411C17.8164 62.4399 16.1623 61.7547 14.9427 60.5352C13.7231 59.3156 13.038 57.6615 13.038 55.9367Z" fill="#E7E7E7"></path>
      <path d="M36.4055 71.135C41.3261 71.135 45.3151 67.146 45.3151 62.2254C45.3151 57.3048 41.3261 53.3158 36.4055 53.3158C31.4848 53.3158 27.4958 57.3048 27.4958 62.2254C27.4958 67.146 31.4848 71.135 36.4055 71.135Z" fill="#19E08D"></path>
      <path d="M44.9015 61.7064C44.9015 64.0693 43.9628 66.3355 42.2919 68.0064C40.6211 69.6773 38.3549 70.616 35.9919 70.616C33.6289 70.616 31.3627 69.6773 29.6918 68.0064C28.021 66.3355 27.0823 64.0693 27.0823 61.7064C27.0825 61.3305 27.1057 60.9549 27.1515 60.5818C27.4246 62.7337 28.4732 64.712 30.1007 66.146C31.7282 67.5799 33.8228 68.3711 35.9919 68.3711C38.161 68.3711 40.2556 67.5799 41.8831 66.146C43.5106 64.712 44.5592 62.7337 44.8323 60.5818C44.8781 60.9549 44.9012 61.3305 44.9015 61.7064Z" fill="#7EE0B7"></path>
      <path d="M53.2714 63.6803H47.7474V61.6043H53.2714C54.7204 61.6029 56.1097 61.0267 57.1343 60.0021C58.1589 58.9775 58.7351 57.5882 58.7365 56.1392V7.54116C58.7351 6.09214 58.1589 4.70286 57.1343 3.67824C56.1097 2.65363 54.7204 2.0774 53.2714 2.07602H19.536C18.0878 2.07877 16.6999 2.65561 15.6764 3.68007C14.6529 4.70454 14.0774 6.09303 14.076 7.54116V56.1409C14.0774 57.5899 14.6536 58.9792 15.6782 60.0038C16.7029 61.0284 18.0921 61.6047 19.5412 61.606H25.4232V63.682H19.5412C17.5418 63.6798 15.625 62.8845 14.2113 61.4708C12.7975 60.057 12.0023 58.1402 12 56.1409V7.54116C12.0023 5.54182 12.7975 3.62503 14.2113 2.21128C15.625 0.797537 17.5418 0.00228941 19.5412 0L53.2766 0C55.2759 0.00228941 57.1927 0.797537 58.6064 2.21128C60.0202 3.62503 60.8154 5.54182 60.8177 7.54116V56.1409C60.815 58.1408 60.0188 60.058 58.604 61.4715C57.1892 62.885 55.2713 63.6794 53.2714 63.6803Z" fill="#54BAE0"></path>
      <path d="M44.3635 28.1007H28.4473V30.1767H44.3635V28.1007Z" fill="#54BAE0"></path>
      <path d="M44.3635 33.1108H28.4473V35.1869H44.3635V33.1108Z" fill="#54BAE0"></path>
      <path d="M44.3635 38.1227H28.4473V40.1988H44.3635V38.1227Z" fill="#54BAE0"></path>
      <path d="M36.4054 72C34.4379 72 32.5147 71.4166 30.8788 70.3235C29.2429 69.2304 27.9679 67.6768 27.215 65.8591C26.4621 64.0415 26.2651 62.0413 26.6489 60.1117C27.0327 58.182 27.9802 56.4095 29.3714 55.0183C30.7626 53.6271 32.5351 52.6797 34.4647 52.2959C36.3944 51.9121 38.3945 52.109 40.2122 52.862C42.0299 53.6149 43.5835 54.8899 44.6765 56.5258C45.7696 58.1616 46.353 60.0849 46.353 62.0524C46.3503 64.6898 45.3013 67.2184 43.4364 69.0834C41.5714 70.9483 39.0428 71.9972 36.4054 72ZM36.4054 54.1808C34.8485 54.1808 33.3266 54.6424 32.0322 55.5074C30.7377 56.3723 29.7288 57.6017 29.133 59.04C28.5372 60.4784 28.3813 62.0611 28.685 63.588C28.9888 65.115 29.7385 66.5176 30.8393 67.6184C31.9402 68.7193 33.3428 69.469 34.8697 69.7727C36.3967 70.0764 37.9794 69.9205 39.4177 69.3248C40.8561 68.729 42.0854 67.7201 42.9504 66.4256C43.8153 65.1311 44.277 63.6092 44.277 62.0524C44.2747 59.9654 43.4446 57.9645 41.9689 56.4888C40.4932 55.0131 38.4924 54.1831 36.4054 54.1808Z" fill="#54BAE0"></path>
      <path d="M35.5577 68.2285L31.3849 64.2772L32.8122 62.7686L35.2152 65.0453L40.0644 57.9211L41.7806 59.0906L35.5577 68.2285Z" fill="white"></path>
      <path d="M30.8883 60.5819C30.8883 60.5975 30.8745 60.6338 30.9074 60.4746C30.9402 60.3155 30.9852 60.1096 31.0354 59.9297C31.1794 59.4094 31.3948 58.9116 31.6755 58.4505C32.6754 56.8208 34.3985 56.2015 36.2514 56.2568C36.9192 56.2759 36.9192 55.2379 36.2514 55.2188C34.1304 55.1583 32.153 55.9108 30.9298 57.6945C30.3431 58.5561 29.9728 59.5466 29.8503 60.5819C29.7777 61.2445 30.8174 61.2393 30.8883 60.5819Z" fill="#F9F9F9"></path>
      <g opacity="0.5">
        <path d="M18.0049 6.21941H24.0219C24.6897 6.21941 24.6914 5.1814 24.0219 5.1814H18.0049C17.3371 5.1814 17.3354 6.21941 18.0049 6.21941Z" fill="#7490A8"></path>
        <path d="M26.5114 6.21941H41.4484C42.1162 6.21941 42.1179 5.1814 41.4484 5.1814H26.5114C25.8436 5.1814 25.8419 6.21941 26.5114 6.21941Z" fill="#7490A8"></path>
      </g>
      <path d="M51.6964 18.3262H51.087V21.0859C51.087 21.4492 51.007 21.7168 50.8468 21.8887C50.6866 22.0605 50.4777 22.1465 50.2198 22.1465C49.9425 22.1465 49.7277 22.0566 49.5753 21.877C49.423 21.6973 49.3468 21.4336 49.3468 21.0859V14.4766C49.3468 14.1016 49.4308 13.8301 49.5988 13.6621C49.7667 13.4941 50.0382 13.4102 50.4132 13.4102H53.2433C53.6339 13.4102 53.9679 13.4277 54.2452 13.4629C54.5226 13.4941 54.7726 13.5605 54.9952 13.6621C55.2648 13.7754 55.5031 13.9375 55.7101 14.1484C55.9171 14.3594 56.0734 14.6055 56.1788 14.8867C56.2882 15.1641 56.3429 15.459 56.3429 15.7715C56.3429 16.4121 56.1613 16.9238 55.798 17.3066C55.4386 17.6895 54.8917 17.9609 54.1573 18.1211C54.4659 18.2852 54.7609 18.5273 55.0421 18.8477C55.3234 19.168 55.5734 19.5098 55.7921 19.873C56.0148 20.2324 56.1866 20.5586 56.3077 20.8516C56.4327 21.1406 56.4952 21.3398 56.4952 21.4492C56.4952 21.5625 56.4581 21.6758 56.3839 21.7891C56.3136 21.8984 56.2159 21.9844 56.0909 22.0469C55.9659 22.1133 55.8214 22.1465 55.6573 22.1465C55.462 22.1465 55.298 22.0996 55.1652 22.0059C55.0323 21.916 54.9171 21.8008 54.8195 21.6602C54.7257 21.5195 54.5968 21.3125 54.4327 21.0391L53.7355 19.8789C53.4855 19.4531 53.2609 19.1289 53.0616 18.9062C52.8663 18.6836 52.6671 18.5312 52.464 18.4492C52.2609 18.3672 52.005 18.3262 51.6964 18.3262ZM52.6925 14.7168H51.087V17.0781H52.6456C53.0636 17.0781 53.4152 17.043 53.7003 16.9727C53.9855 16.8984 54.2023 16.7754 54.3507 16.6035C54.5031 16.4277 54.5792 16.1875 54.5792 15.8828C54.5792 15.6445 54.5187 15.4355 54.3976 15.2559C54.2765 15.0723 54.1085 14.9355 53.8937 14.8457C53.6906 14.7598 53.2902 14.7168 52.6925 14.7168Z" fill="#54BAE0"></path>
      <path d="M47.0148 14.752H43.0948V16.8613H46.7042C46.9698 16.8613 47.1671 16.9219 47.296 17.043C47.4288 17.1602 47.4952 17.3164 47.4952 17.5117C47.4952 17.707 47.4308 17.8672 47.3019 17.9922C47.173 18.1133 46.9738 18.1738 46.7042 18.1738H43.0948V20.6172H47.1495C47.423 20.6172 47.6281 20.6816 47.7648 20.8105C47.9054 20.9355 47.9757 21.1035 47.9757 21.3145C47.9757 21.5176 47.9054 21.6836 47.7648 21.8125C47.6281 21.9375 47.423 22 47.1495 22H42.421C42.0421 22 41.7687 21.916 41.6007 21.748C41.4366 21.5801 41.3546 21.3086 41.3546 20.9336V14.4766C41.3546 14.2266 41.3917 14.0234 41.4659 13.8672C41.5402 13.707 41.6554 13.5918 41.8116 13.5215C41.9718 13.4473 42.1749 13.4102 42.421 13.4102H47.0148C47.2921 13.4102 47.4972 13.4727 47.63 13.5977C47.7667 13.7188 47.8351 13.8789 47.8351 14.0781C47.8351 14.2812 47.7667 14.4453 47.63 14.5703C47.4972 14.6914 47.2921 14.752 47.0148 14.752Z" fill="#54BAE0"></path>
      <path d="M39.2335 14.752H35.8058V16.9492H38.671C38.9366 16.9492 39.1339 17.0098 39.2628 17.1309C39.3956 17.248 39.462 17.4062 39.462 17.6055C39.462 17.8047 39.3956 17.9629 39.2628 18.0801C39.13 18.1973 38.9327 18.2559 38.671 18.2559H35.8058V21.0859C35.8058 21.4453 35.7238 21.7129 35.5597 21.8887C35.3995 22.0605 35.1925 22.1465 34.9386 22.1465C34.6808 22.1465 34.4698 22.0586 34.3058 21.8828C34.1456 21.707 34.0656 21.4414 34.0656 21.0859V14.4766C34.0656 14.2266 34.1027 14.0234 34.1769 13.8672C34.2511 13.707 34.3663 13.5918 34.5226 13.5215C34.6827 13.4473 34.8859 13.4102 35.132 13.4102H39.2335C39.5109 13.4102 39.7159 13.4727 39.8488 13.5977C39.9855 13.7188 40.0538 13.8789 40.0538 14.0781C40.0538 14.2812 39.9855 14.4453 39.8488 14.5703C39.7159 14.6914 39.5109 14.752 39.2335 14.752Z" fill="#54BAE0"></path>
      <path d="M31.9796 14.752H28.5519V16.9492H31.4171C31.6827 16.9492 31.88 17.0098 32.0089 17.1309C32.1417 17.248 32.2081 17.4062 32.2081 17.6055C32.2081 17.8047 32.1417 17.9629 32.0089 18.0801C31.8761 18.1973 31.6788 18.2559 31.4171 18.2559H28.5519V21.0859C28.5519 21.4453 28.4698 21.7129 28.3058 21.8887C28.1456 22.0605 27.9386 22.1465 27.6847 22.1465C27.4269 22.1465 27.2159 22.0586 27.0519 21.8828C26.8917 21.707 26.8116 21.4414 26.8116 21.0859V14.4766C26.8116 14.2266 26.8488 14.0234 26.923 13.8672C26.9972 13.707 27.1124 13.5918 27.2687 13.5215C27.4288 13.4473 27.632 13.4102 27.8781 13.4102H31.9796C32.257 13.4102 32.462 13.4727 32.5948 13.5977C32.7316 13.7188 32.7999 13.8789 32.7999 14.0781C32.7999 14.2812 32.7316 14.4453 32.5948 14.5703C32.462 14.6914 32.257 14.752 31.9796 14.752Z" fill="#54BAE0"></path>
      <path d="M21.1222 13.2637C22.0128 13.2637 22.7765 13.4453 23.4132 13.8086C24.0538 14.168 24.5382 14.6816 24.8663 15.3496C25.1945 16.0137 25.3585 16.7949 25.3585 17.6934C25.3585 18.3574 25.2687 18.9609 25.089 19.5039C24.9093 20.0469 24.6398 20.5176 24.2804 20.916C23.921 21.3145 23.4796 21.6191 22.9562 21.8301C22.4327 22.041 21.8331 22.1465 21.1573 22.1465C20.4855 22.1465 19.8839 22.0391 19.3527 21.8242C18.8214 21.6055 18.3781 21.2988 18.0226 20.9043C17.6671 20.5098 17.3976 20.0352 17.214 19.4805C17.0343 18.9258 16.9445 18.3262 16.9445 17.6816C16.9445 17.0215 17.0382 16.416 17.2257 15.8652C17.4171 15.3145 17.6925 14.8457 18.0519 14.459C18.4113 14.0723 18.8488 13.7773 19.3644 13.5742C19.88 13.3672 20.4659 13.2637 21.1222 13.2637ZM23.5948 17.6816C23.5948 17.0527 23.4933 16.5078 23.2902 16.0469C23.087 15.5859 22.796 15.2383 22.4171 15.0039C22.0421 14.7656 21.6105 14.6465 21.1222 14.6465C20.7745 14.6465 20.4523 14.7129 20.1554 14.8457C19.8624 14.9746 19.6085 15.1641 19.3937 15.4141C19.1827 15.6641 19.0148 15.9844 18.8898 16.375C18.7687 16.7617 18.7081 17.1973 18.7081 17.6816C18.7081 18.1699 18.7687 18.6113 18.8898 19.0059C19.0148 19.4004 19.1886 19.7285 19.4113 19.9902C19.6378 20.248 19.8956 20.4414 20.1847 20.5703C20.4777 20.6992 20.798 20.7637 21.1456 20.7637C21.5909 20.7637 21.9991 20.6523 22.3702 20.4297C22.7452 20.207 23.0421 19.8633 23.2609 19.3984C23.4835 18.9336 23.5948 18.3613 23.5948 17.6816Z" fill="#54BAE0"></path>
    </g>
    <defs>
      <clipPath id="clip0_6_1433">
        <rect width="72" height="72" fill="white"></rect>
      </clipPath>
    </defs>
  </symbol>
  <symbol fill="none" xmlns="http://www.w3.org/2000/svg" viewBox="0 0 82 82" id="icon-lose">
    <path d="M41 82C63.6437 82 82 63.6437 82 41C82 18.3563 63.6437 0 41 0C18.3563 0 0 18.3563 0 41C0 63.6437 18.3563 82 41 82Z" fill="#F51A51"></path>
    <path d="M82 41.5498C82 52.2779 77.6804 62.5666 69.9914 70.1524C62.3024 77.7383 51.8739 82 41 82C30.1261 82 19.6976 77.7383 12.0086 70.1524C4.31963 62.5666 1.62033e-07 52.2779 0 41.5498C0.00122562 39.8432 0.107572 38.1383 0.318448 36.4445C1.57534 46.2139 6.40074 55.1956 13.8901 61.7059C21.3794 68.2162 31.0183 71.808 41 71.808C50.9817 71.808 60.6206 68.2162 68.11 61.7059C75.5993 55.1956 80.4247 46.2139 81.6816 36.4445C81.8924 38.1383 81.9987 39.8432 82 41.5498Z" fill="#F56C8E"></path>
    <path d="M56.1208 19.2072L21.6768 53.6512L28.3642 60.3387L62.8082 25.8946L56.1208 19.2072Z" fill="white"></path>
    <path d="M64.3912 55.1566L28.9983 19.7637L22.3109 26.4512L57.7037 61.844L64.3912 55.1566Z" fill="white"></path>
    <path d="M12.7831 33.1011C12.7831 33.172 12.7201 33.3375 12.8698 32.6125C13.0196 31.8874 13.2245 30.9495 13.453 30.1299C14.109 27.7598 15.0903 25.492 16.3691 23.3914C20.9244 15.9673 28.7741 13.1459 37.2149 13.3981C40.257 13.4848 40.257 8.75604 37.2149 8.66935C27.5525 8.3935 18.5443 11.8218 12.9723 19.9474C10.2992 23.8727 8.61217 28.3849 8.0544 33.1011C7.72339 36.1196 12.46 36.0959 12.7831 33.1011Z" fill="#F9F9F9"></path>
  </symbol>
  <symbol fill="none" xmlns="http://www.w3.org/2000/svg" viewBox="0 0 38 22" id="icon-mute-off">
    <rect x="0.5" y="0.5" width="37" height="21" rx="10.5" stroke="#3C82C2"></rect>
    <g filter="url(#filter0_d_6_1132)">
      <circle cx="11" cy="11" r="9" fill="#3C82C2"></circle>
    </g>
    <g clip-path="url(#clip0_6_1132)">
      <path d="M13.8333 10.9999C13.8333 10.7237 13.6095 10.4999 13.3333 10.4999C13.0572 10.4999 12.8333 10.7237 12.8333 10.9999H13.8333ZM9.60738 14.8301C9.37641 14.6788 9.06648 14.7433 8.91513 14.9743C8.76377 15.2053 8.82831 15.5152 9.05929 15.6665L9.60738 14.8301ZM9.00811 7.56412L9.15407 7.46788L8.60361 6.63302L8.45765 6.72926L9.00811 7.56412ZM4.52227 11.6551C4.50817 11.4237 4.5 11.202 4.5 10.9999H3.5C3.5 11.2276 3.50916 11.4704 3.52412 11.7159L4.52227 11.6551ZM4.5 10.9999C4.5 10.7977 4.50817 10.576 4.52227 10.3447L3.52412 10.2839C3.50916 10.5293 3.5 10.7721 3.5 10.9999H4.5ZM12.8333 10.9999C12.8333 11.3411 12.8104 11.9672 12.7757 12.7136L13.7746 12.76C13.8091 12.0167 13.8333 11.3679 13.8333 10.9999H12.8333ZM7.00005 8.16654C7.32514 8.16654 7.54455 8.16814 7.76072 8.13164L7.59421 7.1456C7.47971 7.16493 7.35773 7.16654 7.00005 7.16654V8.16654ZM8.45765 6.72926C8.15904 6.92614 8.05632 6.99195 7.95009 7.03883L8.35385 7.9537C8.55442 7.86518 8.73671 7.74306 9.00811 7.56412L8.45765 6.72926ZM7.76072 8.13164C7.96504 8.09713 8.16427 8.03736 8.35385 7.9537L7.95009 7.03883C7.83635 7.08903 7.7168 7.12489 7.59421 7.1456L7.76072 8.13164ZM7.00005 14.8332C7.35773 14.8332 7.47971 14.8348 7.59421 14.8541L7.76072 13.8681C7.54455 13.8316 7.32514 13.8332 7.00005 13.8332V14.8332ZM7.00005 13.8332C6.03761 13.8332 5.71274 13.8223 5.43653 13.6945L5.01664 14.6021C5.53954 14.8441 6.13062 14.8332 7.00005 14.8332V13.8332ZM3.52412 11.7159C3.57099 12.4849 3.59339 13.014 3.86552 13.519L4.74587 13.0447C4.60035 12.7746 4.57363 12.4978 4.52227 11.6551L3.52412 11.7159ZM5.43653 13.6945C5.16963 13.5711 4.88536 13.3036 4.74587 13.0447L3.86552 13.519C4.10761 13.9683 4.55344 14.3878 5.01664 14.6021L5.43653 13.6945ZM12.7757 12.7136C12.7283 13.7341 12.694 14.4487 12.601 14.9653C12.5084 15.4795 12.3767 15.6759 12.2323 15.7774L12.8073 16.5956C13.278 16.2648 13.4773 15.7421 13.5852 15.1425C13.6927 14.5452 13.7285 13.7511 13.7746 12.76L12.7757 12.7136ZM12.2949 16.8563C12.4761 16.7945 12.6506 16.7057 12.8073 16.5956L12.2323 15.7774C12.1531 15.8331 12.0635 15.8787 11.9719 15.9099L12.2949 16.8563ZM9.15407 7.46788C10.0139 6.90094 10.6173 6.50434 11.0935 6.27304C11.5683 6.04236 11.8058 6.03311 11.9719 6.0898L12.2949 5.14338C11.7494 4.95725 11.2072 5.10604 10.6565 5.37355C10.1071 5.64043 9.43905 6.08218 8.60361 6.63302L9.15407 7.46788ZM11.9719 6.0898C12.0635 6.12106 12.1531 6.16666 12.2323 6.22232L12.8073 5.40415C12.6506 5.29403 12.4761 5.20524 12.2949 5.14338L11.9719 6.0898ZM7.00005 7.16654C6.13062 7.16654 5.53954 7.15568 5.01664 7.39761L5.43653 8.30518C5.71274 8.17739 6.03761 8.16654 7.00005 8.16654V7.16654ZM4.52227 10.3447C4.57363 9.50191 4.60035 9.22511 4.74587 8.95504L3.86552 8.4807C3.59339 8.98576 3.57099 9.51485 3.52412 10.2839L4.52227 10.3447ZM5.01664 7.39761C4.55344 7.61191 4.10761 8.0314 3.86552 8.4807L4.74587 8.95504C4.88536 8.69614 5.16963 8.42866 5.43653 8.30518L5.01664 7.39761ZM9.05929 15.6665C9.7518 16.1204 10.325 16.483 10.8136 16.6992C11.3085 16.9181 11.8002 17.0251 12.2949 16.8563L11.9719 15.9099C11.8216 15.9612 11.6125 15.9591 11.2181 15.7847C10.8176 15.6075 10.3132 15.2927 9.60738 14.8301L9.05929 15.6665ZM13.7487 8.6932C13.7083 7.8751 13.6642 7.20458 13.5513 6.68636C13.4368 6.16074 13.2335 5.70372 12.8073 5.40415L12.2323 6.22232C12.3629 6.31408 12.4836 6.48339 12.5743 6.89926C12.6665 7.32254 12.7087 7.90866 12.7499 8.74254L13.7487 8.6932Z" fill="white"></path>
      <path d="M16.3333 15C16.3333 15 17.3333 13.8 17.3333 11C17.3333 9.37771 16.9976 8.29254 16.7152 7.66666" stroke="white" stroke-linecap="round"></path>
      <path d="M15 13C15 13 15.3333 12.4 15.3333 11C15.3333 10.4254 15.2772 9.98559 15.211 9.66666" stroke="white" stroke-linecap="round"></path>
      <path d="M17.6666 4.33334L4.33331 17.6667" stroke="white" stroke-linecap="round"></path>
    </g>
    <defs>
      <filter id="filter0_d_6_1132" x="1" y="1" width="20" height="20" filterUnits="userSpaceOnUse" color-interpolation-filters="sRGB">
        <feFlood flood-opacity="0" result="BackgroundImageFix"></feFlood>
        <feColorMatrix in="SourceAlpha" type="matrix" values="0 0 0 0 0 0 0 0 0 0 0 0 0 0 0 0 0 0 127 0" result="hardAlpha"></feColorMatrix>
        <feOffset></feOffset>
        <feGaussianBlur stdDeviation="0.5"></feGaussianBlur>
        <feComposite in2="hardAlpha" operator="out"></feComposite>
        <feColorMatrix type="matrix" values="0 0 0 0 0.235294 0 0 0 0 0.509804 0 0 0 0 0.760784 0 0 0 0.25 0"></feColorMatrix>
        <feBlend mode="normal" in2="BackgroundImageFix" result="effect1_dropShadow_6_1132"></feBlend>
        <feBlend mode="normal" in="SourceGraphic" in2="effect1_dropShadow_6_1132" result="shape"></feBlend>
      </filter>
      <clipPath id="clip0_6_1132">
        <rect width="16" height="16" fill="white" transform="translate(3 3)"></rect>
      </clipPath>
    </defs>
  </symbol>
  <symbol fill="none" xmlns="http://www.w3.org/2000/svg" viewBox="0 0 38 22" id="icon-mute-on">
    <rect x="0.5" y="0.5" width="37" height="21" rx="10.5" stroke="#3C82C2"></rect>
    <g filter="url(#filter0_d_6_1131)">
      <circle cx="27" cy="11" r="9" fill="#3C82C2"></circle>
    </g>
    <path d="M20.0232 10.3143C20.0723 9.50837 20.0969 9.10543 20.3057 8.71786C20.4965 8.36375 20.8615 8.02028 21.2266 7.85138C21.6261 7.66653 22.0841 7.66653 23.0001 7.66653C23.3414 7.66653 23.5121 7.66653 23.6775 7.63861C23.8409 7.611 24.0003 7.56319 24.152 7.49625C24.3054 7.42855 24.4479 7.33459 24.7329 7.14668L24.8788 7.05044C26.5741 5.93265 27.4218 5.37375 28.1334 5.61658C28.2698 5.66313 28.4019 5.73034 28.5198 5.81323C29.1349 6.24553 29.1817 7.25133 29.2751 9.26293C29.3097 10.0078 29.3333 10.6453 29.3333 10.9999C29.3333 11.3545 29.3097 11.9919 29.2751 12.7368C29.1817 14.7484 29.1349 15.7542 28.5198 16.1865C28.4019 16.2694 28.2698 16.3366 28.1334 16.3831C27.4218 16.6259 26.5741 16.0671 24.8788 14.9493L24.7329 14.8531C24.4479 14.6651 24.3054 14.5711 24.152 14.5035C24.0003 14.4365 23.8409 14.3887 23.6775 14.3611C23.5121 14.3332 23.3414 14.3332 23.0001 14.3332C22.0841 14.3332 21.6261 14.3332 21.2266 14.1483C20.8615 13.9795 20.4965 13.6359 20.3057 13.2819C20.0969 12.8943 20.0723 12.4913 20.0232 11.6855C20.0087 11.4471 20 11.2148 20 10.9999C20 10.7849 20.0087 10.5527 20.0232 10.3143Z" stroke="white"></path>
    <path d="M32.3333 7C32.3333 7 33.3333 8.2 33.3333 11C33.3333 13.8 32.3333 15 32.3333 15" stroke="white" stroke-linecap="round"></path>
    <path d="M31 9C31 9 31.3333 9.6 31.3333 11C31.3333 12.4 31 13 31 13" stroke="white" stroke-linecap="round"></path>
    <defs>
      <filter id="filter0_d_6_1131" x="17" y="1" width="20" height="20" filterUnits="userSpaceOnUse" color-interpolation-filters="sRGB">
        <feFlood flood-opacity="0" result="BackgroundImageFix"></feFlood>
        <feColorMatrix in="SourceAlpha" type="matrix" values="0 0 0 0 0 0 0 0 0 0 0 0 0 0 0 0 0 0 127 0" result="hardAlpha"></feColorMatrix>
        <feOffset></feOffset>
        <feGaussianBlur stdDeviation="0.5"></feGaussianBlur>
        <feComposite in2="hardAlpha" operator="out"></feComposite>
        <feColorMatrix type="matrix" values="0 0 0 0 0.235294 0 0 0 0 0.509804 0 0 0 0 0.760784 0 0 0 0.25 0"></feColorMatrix>
        <feBlend mode="normal" in2="BackgroundImageFix" result="effect1_dropShadow_6_1131"></feBlend>
        <feBlend mode="normal" in="SourceGraphic" in2="effect1_dropShadow_6_1131" result="shape"></feBlend>
      </filter>
    </defs>
  </symbol>
  <symbol fill="none" xmlns="http://www.w3.org/2000/svg" viewBox="0 0 90 95" id="icon-win">
    <g id="Group">
      <path id="Vector" d="M88.0976 26.1875C87.0037 26.5412 85.8389 26.7386 84.6261 26.7386C78.4194 26.7386 73.3876 21.7191 73.3876 15.5277C73.3876 14.0808 73.6723 12.7016 74.1728 11.432L44.9995 0L15.8272 11.432C16.3277 12.7026 16.6124 14.0808 16.6124 15.5277C16.6124 21.7191 11.5806 26.7386 5.37388 26.7386C4.16212 26.7386 2.99631 26.5422 1.90242 26.1875C-2.32826 43.9763 -3.71485 79.3088 45.0005 95C93.7148 79.3088 92.3283 43.9763 88.0976 26.1875Z" fill="url(#paint0_linear_22_4950)"></path>
      <path id="Vector_2" d="M20.5164 32.1925V13.8765L15.8262 11.4321C16.3267 12.7026 16.6114 14.0808 16.6114 15.5277C16.6114 21.7191 11.5795 26.7386 5.37283 26.7386C4.16106 26.7386 2.99525 26.5422 1.90137 26.1875L5.03017 30.7206L20.5164 32.1925Z" fill="url(#paint1_linear_22_4950)"></path>
      <path id="Vector_3" d="M69.4827 13.8765V36.0122H78.2158L84.9679 30.7206L88.0967 26.1875C87.0028 26.5412 85.838 26.7386 84.6252 26.7386C78.4186 26.7386 73.3867 21.7191 73.3867 15.5277C73.3867 14.0808 73.6714 12.7016 74.1719 11.4321L69.4827 13.8765Z" fill="url(#paint2_linear_22_4950)"></path>
      <path id="Vector_4" d="M44.9995 90.8027V95C93.7149 79.3088 92.3273 43.9763 88.0976 26.1875L84.9688 30.7206L44.9995 90.8027Z" fill="url(#paint3_linear_22_4950)"></path>
      <path id="Vector_5" d="M44.9994 90.8027C4.09009 77.0866 1.75348 48.7058 5.03114 30.7206C5.14502 30.7236 5.2589 30.7246 5.37278 30.7246C13.7732 30.7246 20.6073 23.9075 20.6073 15.5277C20.6073 14.9737 20.5773 14.4236 20.5164 13.8765L44.9994 4.28304L69.4824 13.8765C69.4215 14.4236 69.3915 14.9747 69.3915 15.5277C69.3915 23.9075 76.2256 30.7246 84.626 30.7246C84.7399 30.7246 84.8548 30.7236 84.9677 30.7206C88.2453 48.7058 85.9087 77.0866 44.9994 90.8027Z" fill="url(#paint4_linear_22_4950)"></path>
      <path id="Vector_6" opacity="0.9" d="M84.9678 30.7206C84.9678 30.7206 85.0237 31.0276 85.1276 31.6036C85.2405 32.1776 85.3723 33.0266 85.5362 34.1078C85.685 35.191 85.8429 36.5084 85.9657 38.0281C86.0646 39.5468 86.1735 41.2668 86.1126 43.1442C86.0676 45.0197 85.9527 47.0546 85.6431 49.1861C85.3374 51.3147 84.9178 53.5529 84.2505 55.809C83.5912 58.0651 82.739 60.3471 81.6871 62.5833C80.6212 64.8135 79.3285 66.9749 77.89 69.0338C76.4404 71.0896 74.7572 72.963 73.0389 74.7368C72.1408 75.5859 71.2827 76.4628 70.3456 77.2311C69.8851 77.6237 69.4356 78.0243 68.9731 78.402C68.5005 78.7667 68.032 79.1295 67.5665 79.4902C65.7024 80.9242 63.7943 82.1649 61.9552 83.2859C60.1001 84.3811 58.3129 85.3587 56.6196 86.1748C54.9474 87.0328 53.345 87.6746 51.9454 88.2785C50.5199 88.8226 49.2901 89.3318 48.2552 89.6896C46.1833 90.4001 45.0005 90.8057 45.0005 90.8057C45.0005 90.8057 46.1733 90.3712 48.2262 89.6108C49.2512 89.2282 50.4669 88.6901 51.8755 88.1131C52.5768 87.8171 53.303 87.4554 54.0792 87.0996C54.8554 86.7439 55.6736 86.3751 56.4998 85.9337C58.1801 85.1056 59.9523 84.117 61.7894 83.0119C63.6095 81.8799 65.4966 80.6302 67.3367 79.1903C67.7953 78.8295 68.2588 78.4648 68.7253 78.0991C69.1728 77.7094 69.6234 77.3188 70.0779 76.9252C71.002 76.1559 71.8451 75.2779 72.7282 74.4289C74.4165 72.6581 76.0658 70.7866 77.4854 68.7448C78.9249 66.7208 80.2216 64.5933 81.2955 62.394C82.3554 60.1887 83.2195 57.9345 83.8919 55.7033C84.5722 53.4721 85.0077 51.2529 85.3284 49.1413C85.654 47.0267 85.7859 45.0037 85.8469 43.1383C85.9118 41.2718 85.8489 39.5578 85.7889 38.0411C85.703 36.5244 85.5781 35.204 85.4563 34.1198C85.3184 33.0375 85.2075 32.1865 85.1086 31.6085C85.0167 31.0296 84.9678 30.7206 84.9678 30.7206Z" fill="white"></path>
      <path id="Vector_7" d="M44.9995 0V4.28303L69.4826 13.8765L74.1728 11.432L44.9995 0Z" fill="url(#paint5_linear_22_4950)"></path>
      <g id="Group_2">
        <path id="Vector_8" d="M22.7301 65.9714L17.7302 34.907L35.4192 43.2578L45.0004 26.7037L54.5817 43.2578L72.2696 34.908L67.2937 66.0143L22.7301 65.9714Z" fill="#893B0C"></path>
        <path id="Vector_9" d="M71.5984 35.8009L54.3699 43.9335L45.0005 27.744L35.63 43.9335L18.4026 35.8009L23.1757 65.4513L66.8492 65.4941L71.5984 35.8009Z" fill="url(#paint6_linear_22_4950)"></path>
        <path id="Vector_10" d="M26.3033 61.7871L23.1335 42.0939L37.1163 48.6938L44.9963 35.0784L52.8752 48.6938L66.866 42.0879L63.7102 61.8249L26.3033 61.7871Z" fill="url(#paint7_linear_22_4950)"></path>
        <path id="Vector_11" d="M66.849 65.4941L63.7102 61.8249L26.3034 61.7871L23.1755 65.4513L66.849 65.4941Z" fill="url(#paint8_linear_22_4950)"></path>
        <path id="Vector_12" d="M35.6299 43.9335L37.1164 48.6938L44.9963 35.0784L45.0003 27.744L35.6299 43.9335Z" fill="#E8F983"></path>
        <path id="Vector_13" d="M45.0003 27.744L44.9963 35.0784L52.8753 48.6938L54.3698 43.9335L45.0003 27.744Z" fill="url(#paint9_linear_22_4950)"></path>
        <path id="Vector_14" d="M71.5984 35.8009L66.8662 42.0879L63.7104 61.8249L66.8492 65.4941L71.5984 35.8009Z" fill="url(#paint10_linear_22_4950)"></path>
        <g id="Group_3" opacity="0.9">
          <path id="Vector_15" d="M66.8663 42.0879C66.8663 42.0879 66.7474 43.3336 66.5116 45.1941C66.3847 46.1228 66.2569 47.208 66.081 48.367C65.9072 49.5249 65.7204 50.7596 65.5346 51.9963C65.3258 53.227 65.118 54.4597 64.9222 55.6146C64.7294 56.7696 64.5097 57.8409 64.3418 58.7636C63.9862 60.6042 63.7095 61.8249 63.7095 61.8249C63.7095 61.8249 63.8273 60.5783 64.0641 58.7188C64.192 57.79 64.3168 56.7048 64.4947 55.5459C64.6695 54.3879 64.8553 53.1532 65.0411 51.9166C65.2499 50.6849 65.4577 49.4532 65.6535 48.2982C65.8473 47.1432 66.0661 46.072 66.2339 45.1492C66.5905 43.3097 66.8663 42.0879 66.8663 42.0879Z" fill="white"></path>
        </g>
        <path id="Vector_16" d="M18.4026 35.8009L23.1338 42.0939L37.1165 48.6938L35.63 43.9335L18.4026 35.8009Z" fill="url(#paint11_linear_22_4950)"></path>
        <path id="Vector_17" d="M68.4316 52.6729C67.3736 58.375 65.105 62.7447 63.3677 62.4268C61.6275 62.105 61.0801 57.2151 62.146 51.506C63.2089 45.797 65.4746 41.4372 67.2118 41.7611C68.949 42.079 69.4945 46.9679 68.4316 52.6729Z" fill="url(#paint12_radial_22_4950)"></path>
      </g>
      <path id="Vector_18" opacity="0.4" d="M0.150391 37.5827C0.440095 33.3435 1.1224 29.467 1.9026 26.1875C2.99649 26.5412 4.1613 26.7386 5.37406 26.7386C7.42497 26.7386 9.34202 26.1815 10.9963 25.2238L69.0821 83.1674C64.9403 86.2177 60.0313 89.0398 54.2412 91.5391L0.150391 37.5827ZM44.9997 0L25.3986 7.68116L84.1178 66.2555C88.9229 57.3715 90.2266 48.0859 89.9678 39.9235L53.1454 3.19184L44.9997 0Z" fill="url(#paint13_linear_22_4950)"></path>
    </g>
    <defs>
      <linearGradient id="paint0_linear_22_4950" x1="-13.3641" y1="-43.5714" x2="79.2238" y2="95.1547" gradientUnits="userSpaceOnUse">
        <stop stop-color="#AF6517"></stop>
        <stop offset="0.257" stop-color="#E0A03B"></stop>
        <stop offset="0.48" stop-color="#E9FF88"></stop>
        <stop offset="0.6391" stop-color="#E0A03B"></stop>
        <stop offset="1" stop-color="#88390B"></stop>
      </linearGradient>
      <linearGradient id="paint1_linear_22_4950" x1="25.6149" y1="11.9719" x2="6.77286" y2="34.6045" gradientUnits="userSpaceOnUse">
        <stop stop-color="#AF6517"></stop>
        <stop offset="0.257" stop-color="#E0A03B"></stop>
        <stop offset="0.48" stop-color="#E9FF88"></stop>
        <stop offset="0.6391" stop-color="#E0A03B"></stop>
        <stop offset="1" stop-color="#88390B"></stop>
      </linearGradient>
      <linearGradient id="paint2_linear_22_4950" x1="68.0924" y1="17.1899" x2="80.6031" y2="33.5377" gradientUnits="userSpaceOnUse">
        <stop stop-color="#AF6517"></stop>
        <stop offset="0.257" stop-color="#E0A03B"></stop>
        <stop offset="0.48" stop-color="#E9FF88"></stop>
        <stop offset="0.6391" stop-color="#E0A03B"></stop>
        <stop offset="1" stop-color="#88390B"></stop>
      </linearGradient>
      <linearGradient id="paint3_linear_22_4950" x1="87.3878" y1="-16.4406" x2="62.6958" y2="90.8777" gradientUnits="userSpaceOnUse">
        <stop stop-color="#AF6517"></stop>
        <stop offset="0.257" stop-color="#E0A03B"></stop>
        <stop offset="0.48" stop-color="#E9FF88"></stop>
        <stop offset="0.6391" stop-color="#E0A03B"></stop>
        <stop offset="1" stop-color="#88390B"></stop>
      </linearGradient>
      <linearGradient id="paint4_linear_22_4950" x1="-30.7728" y1="-20.2499" x2="161.621" y2="148.303" gradientUnits="userSpaceOnUse">
        <stop stop-color="#AF6517"></stop>
        <stop offset="0.257" stop-color="#E0A03B"></stop>
        <stop offset="0.48" stop-color="#E9FF88"></stop>
        <stop offset="0.6391" stop-color="#E0A03B"></stop>
        <stop offset="1" stop-color="#88390B"></stop>
      </linearGradient>
      <linearGradient id="paint5_linear_22_4950" x1="3.38363" y1="-11.8429" x2="92.9932" y2="19.5604" gradientUnits="userSpaceOnUse">
        <stop stop-color="#AF6517"></stop>
        <stop offset="0.257" stop-color="#E0A03B"></stop>
        <stop offset="0.48" stop-color="#E9FF88"></stop>
        <stop offset="0.6391" stop-color="#E0A03B"></stop>
        <stop offset="1" stop-color="#88390B"></stop>
      </linearGradient>
      <linearGradient id="paint6_linear_22_4950" x1="15.4414" y1="43.106" x2="88.6041" y2="56.8736" gradientUnits="userSpaceOnUse">
        <stop stop-color="#AF6517"></stop>
        <stop offset="0.257" stop-color="#E0A03B"></stop>
        <stop offset="0.48" stop-color="#E9FF88"></stop>
        <stop offset="0.6391" stop-color="#E0A03B"></stop>
        <stop offset="1" stop-color="#88390B"></stop>
      </linearGradient>
      <linearGradient id="paint7_linear_22_4950" x1="10.0042" y1="24.4806" x2="83.1484" y2="79.6538" gradientUnits="userSpaceOnUse">
        <stop stop-color="#AF6517"></stop>
        <stop offset="0.257" stop-color="#E0A03B"></stop>
        <stop offset="0.48" stop-color="#E9FF88"></stop>
        <stop offset="0.6391" stop-color="#E0A03B"></stop>
        <stop offset="1" stop-color="#88390B"></stop>
      </linearGradient>
      <linearGradient id="paint8_linear_22_4950" x1="-31.8133" y1="-27.9914" x2="37.5345" y2="56.7932" gradientUnits="userSpaceOnUse">
        <stop stop-color="#AF6517"></stop>
        <stop offset="0.257" stop-color="#E0A03B"></stop>
        <stop offset="0.48" stop-color="#E9FF88"></stop>
        <stop offset="0.6391" stop-color="#E0A03B"></stop>
        <stop offset="1" stop-color="#88390B"></stop>
      </linearGradient>
      <linearGradient id="paint9_linear_22_4950" x1="47.4987" y1="34.3283" x2="62.4132" y2="69.8564" gradientUnits="userSpaceOnUse">
        <stop stop-color="#E0A03B"></stop>
        <stop offset="1" stop-color="#88390B"></stop>
      </linearGradient>
      <linearGradient id="paint10_linear_22_4950" x1="49.0296" y1="42.088" x2="84.4662" y2="57.1823" gradientUnits="userSpaceOnUse">
        <stop stop-color="#AF6517"></stop>
        <stop offset="0.257" stop-color="#E0A03B"></stop>
        <stop offset="0.48" stop-color="#E9FF88"></stop>
        <stop offset="0.6391" stop-color="#E0A03B"></stop>
        <stop offset="1" stop-color="#88390B"></stop>
      </linearGradient>
      <linearGradient id="paint11_linear_22_4950" x1="9.60625" y1="32.251" x2="36.2745" y2="46.8368" gradientUnits="userSpaceOnUse">
        <stop stop-color="#AF6517"></stop>
        <stop offset="0.257" stop-color="#E0A03B"></stop>
        <stop offset="0.48" stop-color="#E9FF88"></stop>
        <stop offset="0.6391" stop-color="#E0A03B"></stop>
        <stop offset="1" stop-color="#88390B"></stop>
      </linearGradient>
      <radialGradient id="paint12_radial_22_4950" cx="0" cy="0" r="1" gradientUnits="userSpaceOnUse" gradientTransform="translate(65.2856 52.2428) rotate(10.5073) scale(2.80414 9.66995)">
        <stop stop-color="white"></stop>
        <stop offset="1" stop-color="white" stop-opacity="0"></stop>
      </radialGradient>
      <linearGradient id="paint13_linear_22_4950" x1="-6.01483" y1="45.3551" x2="94.2576" y2="46.1062" gradientUnits="userSpaceOnUse">
        <stop stop-color="white"></stop>
        <stop offset="1" stop-color="#FAF7F5" stop-opacity="0"></stop>
      </linearGradient>
    </defs>
  </symbol>
  <symbol fill="none" xmlns="http://www.w3.org/2000/svg" viewBox="0 0 72 72" id="missed-offer">
    <g clip-path="url(#clip0_6_1481)">
      <path d="M59.8991 48.4285V56.1392C59.8991 57.8639 59.2139 59.518 57.9944 60.7376C56.7748 61.9572 55.1207 62.6423 53.3959 62.6423H19.6605C17.9373 62.6405 16.2852 61.9548 15.0672 60.7358C13.8492 59.5168 13.1648 57.8641 13.1643 56.1409V7.54117C13.1643 5.81673 13.8492 4.16289 15.0684 2.94336C16.2876 1.72384 17.9413 1.03848 19.6657 1.03802H53.4011C55.1259 1.03802 56.78 1.72318 57.9995 2.94275C59.2191 4.16233 59.9043 5.81643 59.9043 7.54117V21.2793" fill="white"></path>
      <path d="M13.038 55.9367V52.1047C13.038 53.8295 13.7231 55.4836 14.9427 56.7032C16.1623 57.9227 17.8164 58.6079 19.5411 58.6079H53.2765C55.0013 58.6079 56.6554 57.9227 57.8749 56.7032C59.0945 55.4836 59.7797 53.8295 59.7797 52.1047V55.9367C59.7797 57.6615 59.0945 59.3156 57.8749 60.5352C56.6554 61.7547 55.0013 62.4399 53.2765 62.4399H19.5411C17.8164 62.4399 16.1623 61.7547 14.9427 60.5352C13.7231 59.3156 13.038 57.6615 13.038 55.9367Z" fill="#E7E7E7"></path>
      <path d="M36.4055 71.135C41.3261 71.135 45.3151 67.146 45.3151 62.2254C45.3151 57.3048 41.3261 53.3158 36.4055 53.3158C31.4848 53.3158 27.4958 57.3048 27.4958 62.2254C27.4958 67.146 31.4848 71.135 36.4055 71.135Z" fill="#F51A51"></path>
      <path d="M44.9015 61.7064C44.9015 64.0693 43.9628 66.3355 42.2919 68.0064C40.6211 69.6773 38.3549 70.616 35.9919 70.616C33.6289 70.616 31.3627 69.6773 29.6918 68.0064C28.021 66.3355 27.0823 64.0693 27.0823 61.7064C27.0825 61.3305 27.1057 60.9549 27.1515 60.5818C27.4246 62.7337 28.4732 64.712 30.1007 66.146C31.7282 67.5799 33.8228 68.3711 35.9919 68.3711C38.161 68.3711 40.2556 67.5799 41.8831 66.146C43.5106 64.712 44.5592 62.7337 44.8323 60.5818C44.8781 60.9549 44.9012 61.3305 44.9015 61.7064Z" fill="#F56C8E"></path>
      <path d="M53.2714 63.6803H47.7474V61.6043H53.2714C54.7204 61.6029 56.1097 61.0267 57.1343 60.0021C58.1589 58.9775 58.7351 57.5882 58.7365 56.1392V7.54116C58.7351 6.09214 58.1589 4.70286 57.1343 3.67824C56.1097 2.65363 54.7204 2.0774 53.2714 2.07602H19.536C18.0878 2.07877 16.6999 2.65561 15.6764 3.68007C14.6529 4.70454 14.0774 6.09303 14.076 7.54116V56.1409C14.0774 57.5899 14.6536 58.9792 15.6782 60.0038C16.7029 61.0284 18.0921 61.6047 19.5412 61.606H25.4232V63.682H19.5412C17.5418 63.6798 15.625 62.8845 14.2113 61.4708C12.7975 60.057 12.0023 58.1402 12 56.1409V7.54116C12.0023 5.54182 12.7975 3.62503 14.2113 2.21128C15.625 0.797537 17.5418 0.00228941 19.5412 0L53.2766 0C55.2759 0.00228941 57.1927 0.797537 58.6064 2.21128C60.0202 3.62503 60.8154 5.54182 60.8177 7.54116V56.1409C60.815 58.1408 60.0188 60.058 58.604 61.4715C57.1892 62.885 55.2713 63.6794 53.2714 63.6803Z" fill="#54BAE0"></path>
      <path d="M44.3635 28.1007H28.4473V30.1767H44.3635V28.1007Z" fill="#54BAE0"></path>
      <path d="M39.4015 57.532L31.8406 65.0929L33.3085 66.5609L40.8694 59L39.4015 57.532Z" fill="white"></path>
      <path d="M44.3635 33.1108H28.4473V35.1869H44.3635V33.1108Z" fill="#54BAE0"></path>
      <path d="M41.2168 65.4233L33.4476 57.6541L31.9797 59.1221L39.7488 66.8912L41.2168 65.4233Z" fill="white"></path>
      <path d="M44.3635 38.1227H28.4473V40.1988H44.3635V38.1227Z" fill="#54BAE0"></path>
      <path d="M36.4054 72C34.4379 72 32.5147 71.4166 30.8788 70.3235C29.2429 69.2304 27.9679 67.6768 27.215 65.8591C26.4621 64.0415 26.2651 62.0413 26.6489 60.1117C27.0327 58.182 27.9802 56.4095 29.3714 55.0183C30.7626 53.6271 32.5351 52.6797 34.4647 52.2959C36.3944 51.9121 38.3945 52.109 40.2122 52.862C42.0299 53.6149 43.5835 54.8899 44.6765 56.5258C45.7696 58.1616 46.353 60.0849 46.353 62.0524C46.3503 64.6898 45.3013 67.2184 43.4364 69.0834C41.5714 70.9483 39.0428 71.9972 36.4054 72ZM36.4054 54.1808C34.8485 54.1808 33.3266 54.6424 32.0322 55.5074C30.7377 56.3723 29.7288 57.6017 29.133 59.04C28.5372 60.4784 28.3813 62.0611 28.685 63.588C28.9888 65.115 29.7385 66.5176 30.8393 67.6184C31.9402 68.7193 33.3428 69.469 34.8697 69.7727C36.3967 70.0764 37.9794 69.9205 39.4177 69.3248C40.8561 68.729 42.0854 67.7201 42.9504 66.4256C43.8153 65.1311 44.277 63.6092 44.277 62.0524C44.2747 59.9654 43.4446 57.9645 41.9689 56.4888C40.4932 55.0131 38.4924 54.1831 36.4054 54.1808Z" fill="#54BAE0"></path>
      <path d="M30.8883 60.5819C30.8883 60.5975 30.8745 60.6338 30.9074 60.4746C30.9402 60.3155 30.9852 60.1096 31.0354 59.9297C31.1794 59.4094 31.3948 58.9116 31.6755 58.4505C32.6754 56.8208 34.3985 56.2015 36.2514 56.2568C36.9192 56.2759 36.9192 55.2379 36.2514 55.2188C34.1304 55.1583 32.153 55.9108 30.9298 57.6945C30.3431 58.5561 29.9728 59.5466 29.8503 60.5819C29.7777 61.2445 30.8174 61.2393 30.8883 60.5819Z" fill="#F9F9F9"></path>
      <g opacity="0.5">
        <path d="M18.0049 6.21941H24.0219C24.6897 6.21941 24.6914 5.1814 24.0219 5.1814H18.0049C17.3371 5.1814 17.3354 6.21941 18.0049 6.21941Z" fill="#7490A8"></path>
        <path d="M26.5114 6.21941H41.4484C42.1162 6.21941 42.1179 5.1814 41.4484 5.1814H26.5114C25.8436 5.1814 25.8419 6.21941 26.5114 6.21941Z" fill="#7490A8"></path>
      </g>
      <path d="M51.6964 18.3262H51.087V21.0859C51.087 21.4492 51.007 21.7168 50.8468 21.8887C50.6866 22.0605 50.4777 22.1465 50.2198 22.1465C49.9425 22.1465 49.7277 22.0566 49.5753 21.877C49.423 21.6973 49.3468 21.4336 49.3468 21.0859V14.4766C49.3468 14.1016 49.4308 13.8301 49.5988 13.6621C49.7667 13.4941 50.0382 13.4102 50.4132 13.4102H53.2433C53.6339 13.4102 53.9679 13.4277 54.2452 13.4629C54.5226 13.4941 54.7726 13.5605 54.9952 13.6621C55.2648 13.7754 55.5031 13.9375 55.7101 14.1484C55.9171 14.3594 56.0734 14.6055 56.1788 14.8867C56.2882 15.1641 56.3429 15.459 56.3429 15.7715C56.3429 16.4121 56.1613 16.9238 55.798 17.3066C55.4386 17.6895 54.8917 17.9609 54.1573 18.1211C54.4659 18.2852 54.7609 18.5273 55.0421 18.8477C55.3234 19.168 55.5734 19.5098 55.7921 19.873C56.0148 20.2324 56.1866 20.5586 56.3077 20.8516C56.4327 21.1406 56.4952 21.3398 56.4952 21.4492C56.4952 21.5625 56.4581 21.6758 56.3839 21.7891C56.3136 21.8984 56.2159 21.9844 56.0909 22.0469C55.9659 22.1133 55.8214 22.1465 55.6573 22.1465C55.462 22.1465 55.298 22.0996 55.1652 22.0059C55.0323 21.916 54.9171 21.8008 54.8195 21.6602C54.7257 21.5195 54.5968 21.3125 54.4327 21.0391L53.7355 19.8789C53.4855 19.4531 53.2609 19.1289 53.0616 18.9062C52.8663 18.6836 52.6671 18.5312 52.464 18.4492C52.2609 18.3672 52.005 18.3262 51.6964 18.3262ZM52.6925 14.7168H51.087V17.0781H52.6456C53.0636 17.0781 53.4152 17.043 53.7003 16.9727C53.9855 16.8984 54.2023 16.7754 54.3507 16.6035C54.5031 16.4277 54.5792 16.1875 54.5792 15.8828C54.5792 15.6445 54.5187 15.4355 54.3976 15.2559C54.2765 15.0723 54.1085 14.9355 53.8937 14.8457C53.6906 14.7598 53.2902 14.7168 52.6925 14.7168Z" fill="#54BAE0"></path>
      <path d="M47.0148 14.752H43.0948V16.8613H46.7042C46.9698 16.8613 47.1671 16.9219 47.296 17.043C47.4288 17.1602 47.4952 17.3164 47.4952 17.5117C47.4952 17.707 47.4308 17.8672 47.3019 17.9922C47.173 18.1133 46.9738 18.1738 46.7042 18.1738H43.0948V20.6172H47.1495C47.423 20.6172 47.6281 20.6816 47.7648 20.8105C47.9054 20.9355 47.9757 21.1035 47.9757 21.3145C47.9757 21.5176 47.9054 21.6836 47.7648 21.8125C47.6281 21.9375 47.423 22 47.1495 22H42.421C42.0421 22 41.7687 21.916 41.6007 21.748C41.4366 21.5801 41.3546 21.3086 41.3546 20.9336V14.4766C41.3546 14.2266 41.3917 14.0234 41.4659 13.8672C41.5402 13.707 41.6554 13.5918 41.8116 13.5215C41.9718 13.4473 42.1749 13.4102 42.421 13.4102H47.0148C47.2921 13.4102 47.4972 13.4727 47.63 13.5977C47.7667 13.7188 47.8351 13.8789 47.8351 14.0781C47.8351 14.2812 47.7667 14.4453 47.63 14.5703C47.4972 14.6914 47.2921 14.752 47.0148 14.752Z" fill="#54BAE0"></path>
      <path d="M39.2335 14.752H35.8058V16.9492H38.671C38.9366 16.9492 39.1339 17.0098 39.2628 17.1309C39.3956 17.248 39.462 17.4062 39.462 17.6055C39.462 17.8047 39.3956 17.9629 39.2628 18.0801C39.13 18.1973 38.9327 18.2559 38.671 18.2559H35.8058V21.0859C35.8058 21.4453 35.7238 21.7129 35.5597 21.8887C35.3995 22.0605 35.1925 22.1465 34.9386 22.1465C34.6808 22.1465 34.4698 22.0586 34.3058 21.8828C34.1456 21.707 34.0656 21.4414 34.0656 21.0859V14.4766C34.0656 14.2266 34.1027 14.0234 34.1769 13.8672C34.2511 13.707 34.3663 13.5918 34.5226 13.5215C34.6827 13.4473 34.8859 13.4102 35.132 13.4102H39.2335C39.5109 13.4102 39.7159 13.4727 39.8488 13.5977C39.9855 13.7188 40.0538 13.8789 40.0538 14.0781C40.0538 14.2812 39.9855 14.4453 39.8488 14.5703C39.7159 14.6914 39.5109 14.752 39.2335 14.752Z" fill="#54BAE0"></path>
      <path d="M31.9796 14.752H28.5519V16.9492H31.4171C31.6827 16.9492 31.88 17.0098 32.0089 17.1309C32.1417 17.248 32.2081 17.4062 32.2081 17.6055C32.2081 17.8047 32.1417 17.9629 32.0089 18.0801C31.8761 18.1973 31.6788 18.2559 31.4171 18.2559H28.5519V21.0859C28.5519 21.4453 28.4698 21.7129 28.3058 21.8887C28.1456 22.0605 27.9386 22.1465 27.6847 22.1465C27.4269 22.1465 27.2159 22.0586 27.0519 21.8828C26.8917 21.707 26.8116 21.4414 26.8116 21.0859V14.4766C26.8116 14.2266 26.8488 14.0234 26.923 13.8672C26.9972 13.707 27.1124 13.5918 27.2687 13.5215C27.4288 13.4473 27.632 13.4102 27.8781 13.4102H31.9796C32.257 13.4102 32.462 13.4727 32.5948 13.5977C32.7316 13.7188 32.7999 13.8789 32.7999 14.0781C32.7999 14.2812 32.7316 14.4453 32.5948 14.5703C32.462 14.6914 32.257 14.752 31.9796 14.752Z" fill="#54BAE0"></path>
      <path d="M21.1222 13.2637C22.0128 13.2637 22.7765 13.4453 23.4132 13.8086C24.0538 14.168 24.5382 14.6816 24.8663 15.3496C25.1945 16.0137 25.3585 16.7949 25.3585 17.6934C25.3585 18.3574 25.2687 18.9609 25.089 19.5039C24.9093 20.0469 24.6398 20.5176 24.2804 20.916C23.921 21.3145 23.4796 21.6191 22.9562 21.8301C22.4327 22.041 21.8331 22.1465 21.1573 22.1465C20.4855 22.1465 19.8839 22.0391 19.3527 21.8242C18.8214 21.6055 18.3781 21.2988 18.0226 20.9043C17.6671 20.5098 17.3976 20.0352 17.214 19.4805C17.0343 18.9258 16.9445 18.3262 16.9445 17.6816C16.9445 17.0215 17.0382 16.416 17.2257 15.8652C17.4171 15.3145 17.6925 14.8457 18.0519 14.459C18.4113 14.0723 18.8488 13.7773 19.3644 13.5742C19.88 13.3672 20.4659 13.2637 21.1222 13.2637ZM23.5948 17.6816C23.5948 17.0527 23.4933 16.5078 23.2902 16.0469C23.087 15.5859 22.796 15.2383 22.4171 15.0039C22.0421 14.7656 21.6105 14.6465 21.1222 14.6465C20.7745 14.6465 20.4523 14.7129 20.1554 14.8457C19.8624 14.9746 19.6085 15.1641 19.3937 15.4141C19.1827 15.6641 19.0148 15.9844 18.8898 16.375C18.7687 16.7617 18.7081 17.1973 18.7081 17.6816C18.7081 18.1699 18.7687 18.6113 18.8898 19.0059C19.0148 19.4004 19.1886 19.7285 19.4113 19.9902C19.6378 20.248 19.8956 20.4414 20.1847 20.5703C20.4777 20.6992 20.798 20.7637 21.1456 20.7637C21.5909 20.7637 21.9991 20.6523 22.3702 20.4297C22.7452 20.207 23.0421 19.8633 23.2609 19.3984C23.4835 18.9336 23.5948 18.3613 23.5948 17.6816Z" fill="#54BAE0"></path>
    </g>
    <defs>
      <clipPath id="clip0_6_1481">
        <rect width="72" height="72" fill="white"></rect>
      </clipPath>
    </defs>
  </symbol>
  <symbol fill="none" xmlns="http://www.w3.org/2000/svg" viewBox="0 0 72 72" id="offer">
    <path d="M59.8991 52.4285V60.1392C59.8991 61.8639 59.2139 63.518 57.9944 64.7376C56.7748 65.9572 55.1207 66.6423 53.3959 66.6423H19.6605C17.9373 66.6405 16.2852 65.9548 15.0672 64.7358C13.8492 63.5168 13.1648 61.8641 13.1643 60.1409V11.5412C13.1643 9.81673 13.8492 8.16289 15.0684 6.94336C16.2876 5.72384 17.9413 5.03848 19.6657 5.03802H53.4011C55.1259 5.03802 56.78 5.72318 57.9995 6.94275C59.2191 8.16233 59.9043 9.81643 59.9043 11.5412V25.2793" fill="white"></path>
    <path d="M13.038 59.9367V56.1047C13.038 57.8295 13.7231 59.4836 14.9427 60.7032C16.1623 61.9227 17.8164 62.6079 19.5411 62.6079H53.2765C55.0013 62.6079 56.6554 61.9227 57.8749 60.7032C59.0945 59.4836 59.7797 57.8295 59.7797 56.1047V59.9367C59.7797 61.6615 59.0945 63.3156 57.8749 64.5352C56.6554 65.7547 55.0013 66.4399 53.2765 66.4399H19.5411C17.8164 66.4399 16.1623 65.7547 14.9427 64.5352C13.7231 63.3156 13.038 61.6615 13.038 59.9367Z" fill="#E7E7E7"></path>
    <path d="M53.2714 67.6803H47.7474V65.6043H53.2714C54.7204 65.6029 56.1097 65.0267 57.1343 64.0021C58.1589 62.9775 58.7351 61.5882 58.7365 60.1392V11.5412C58.7351 10.0921 58.1589 8.70286 57.1343 7.67824C56.1097 6.65363 54.7204 6.0774 53.2714 6.07602H19.536C18.0878 6.07877 16.6999 6.65561 15.6764 7.68007C14.6529 8.70454 14.0774 10.093 14.076 11.5412V60.1409C14.0774 61.5899 14.6536 62.9792 15.6782 64.0038C16.7029 65.0284 18.0921 65.6047 19.5412 65.606L47.7474 65.606V67.6821L19.5412 67.6821C17.5418 67.6798 15.625 66.8845 14.2113 65.4708C12.7975 64.057 12.0023 62.1402 12 60.1409V11.5412C12.0023 9.54182 12.7975 7.62503 14.2113 6.21128C15.625 4.79754 17.5418 4.00229 19.5412 4L53.2766 4C55.2759 4.00229 57.1927 4.79754 58.6064 6.21128C60.0202 7.62503 60.8154 9.54182 60.8177 11.5412V60.1409C60.815 62.1408 60.0188 64.058 58.604 65.4715C57.1892 66.885 55.2713 67.6794 53.2714 67.6803Z" fill="#54BAE0"></path>
    <path d="M44.3635 32.1007H28.4473V34.1767H44.3635V32.1007Z" fill="#54BAE0"></path>
    <path d="M44.3635 37.1108H28.4473V39.1869H44.3635V37.1108Z" fill="#54BAE0"></path>
    <path d="M44.3635 42.1227H28.4473V44.1988H44.3635V42.1227Z" fill="#54BAE0"></path>
    <g opacity="0.5">
      <path d="M18.0049 10.2194H24.0219C24.6897 10.2194 24.6914 9.1814 24.0219 9.1814H18.0049C17.3371 9.1814 17.3354 10.2194 18.0049 10.2194Z" fill="#7490A8"></path>
      <path d="M26.5114 10.2194H41.4484C42.1162 10.2194 42.1179 9.1814 41.4484 9.1814H26.5114C25.8436 9.1814 25.8419 10.2194 26.5114 10.2194Z" fill="#7490A8"></path>
    </g>
    <path d="M51.6964 22.3262H51.087V25.0859C51.087 25.4492 51.007 25.7168 50.8468 25.8887C50.6866 26.0605 50.4777 26.1465 50.2198 26.1465C49.9425 26.1465 49.7277 26.0566 49.5753 25.877C49.423 25.6973 49.3468 25.4336 49.3468 25.0859V18.4766C49.3468 18.1016 49.4308 17.8301 49.5988 17.6621C49.7667 17.4941 50.0382 17.4102 50.4132 17.4102H53.2433C53.6339 17.4102 53.9679 17.4277 54.2452 17.4629C54.5226 17.4941 54.7726 17.5605 54.9952 17.6621C55.2648 17.7754 55.5031 17.9375 55.7101 18.1484C55.9171 18.3594 56.0734 18.6055 56.1788 18.8867C56.2882 19.1641 56.3429 19.459 56.3429 19.7715C56.3429 20.4121 56.1613 20.9238 55.798 21.3066C55.4386 21.6895 54.8917 21.9609 54.1573 22.1211C54.4659 22.2852 54.7609 22.5273 55.0421 22.8477C55.3234 23.168 55.5734 23.5098 55.7921 23.873C56.0148 24.2324 56.1866 24.5586 56.3077 24.8516C56.4327 25.1406 56.4952 25.3398 56.4952 25.4492C56.4952 25.5625 56.4581 25.6758 56.3839 25.7891C56.3136 25.8984 56.2159 25.9844 56.0909 26.0469C55.9659 26.1133 55.8214 26.1465 55.6573 26.1465C55.462 26.1465 55.298 26.0996 55.1652 26.0059C55.0323 25.916 54.9171 25.8008 54.8195 25.6602C54.7257 25.5195 54.5968 25.3125 54.4327 25.0391L53.7355 23.8789C53.4855 23.4531 53.2609 23.1289 53.0616 22.9062C52.8663 22.6836 52.6671 22.5312 52.464 22.4492C52.2609 22.3672 52.005 22.3262 51.6964 22.3262ZM52.6925 18.7168H51.087V21.0781H52.6456C53.0636 21.0781 53.4152 21.043 53.7003 20.9727C53.9855 20.8984 54.2023 20.7754 54.3507 20.6035C54.5031 20.4277 54.5792 20.1875 54.5792 19.8828C54.5792 19.6445 54.5187 19.4355 54.3976 19.2559C54.2765 19.0723 54.1085 18.9355 53.8937 18.8457C53.6906 18.7598 53.2902 18.7168 52.6925 18.7168Z" fill="#54BAE0"></path>
    <path d="M47.0148 18.752H43.0948V20.8613H46.7042C46.9698 20.8613 47.1671 20.9219 47.296 21.043C47.4288 21.1602 47.4952 21.3164 47.4952 21.5117C47.4952 21.707 47.4308 21.8672 47.3019 21.9922C47.173 22.1133 46.9738 22.1738 46.7042 22.1738H43.0948V24.6172H47.1495C47.423 24.6172 47.6281 24.6816 47.7648 24.8105C47.9054 24.9355 47.9757 25.1035 47.9757 25.3145C47.9757 25.5176 47.9054 25.6836 47.7648 25.8125C47.6281 25.9375 47.423 26 47.1495 26H42.421C42.0421 26 41.7687 25.916 41.6007 25.748C41.4366 25.5801 41.3546 25.3086 41.3546 24.9336V18.4766C41.3546 18.2266 41.3917 18.0234 41.4659 17.8672C41.5402 17.707 41.6554 17.5918 41.8116 17.5215C41.9718 17.4473 42.1749 17.4102 42.421 17.4102H47.0148C47.2921 17.4102 47.4972 17.4727 47.63 17.5977C47.7667 17.7188 47.8351 17.8789 47.8351 18.0781C47.8351 18.2812 47.7667 18.4453 47.63 18.5703C47.4972 18.6914 47.2921 18.752 47.0148 18.752Z" fill="#54BAE0"></path>
    <path d="M39.2335 18.752H35.8058V20.9492H38.671C38.9366 20.9492 39.1339 21.0098 39.2628 21.1309C39.3956 21.248 39.462 21.4062 39.462 21.6055C39.462 21.8047 39.3956 21.9629 39.2628 22.0801C39.13 22.1973 38.9327 22.2559 38.671 22.2559H35.8058V25.0859C35.8058 25.4453 35.7238 25.7129 35.5597 25.8887C35.3995 26.0605 35.1925 26.1465 34.9386 26.1465C34.6808 26.1465 34.4698 26.0586 34.3058 25.8828C34.1456 25.707 34.0656 25.4414 34.0656 25.0859V18.4766C34.0656 18.2266 34.1027 18.0234 34.1769 17.8672C34.2511 17.707 34.3663 17.5918 34.5226 17.5215C34.6827 17.4473 34.8859 17.4102 35.132 17.4102H39.2335C39.5109 17.4102 39.7159 17.4727 39.8488 17.5977C39.9855 17.7188 40.0538 17.8789 40.0538 18.0781C40.0538 18.2812 39.9855 18.4453 39.8488 18.5703C39.7159 18.6914 39.5109 18.752 39.2335 18.752Z" fill="#54BAE0"></path>
    <path d="M31.9796 18.752H28.5519V20.9492H31.4171C31.6827 20.9492 31.88 21.0098 32.0089 21.1309C32.1417 21.248 32.2081 21.4062 32.2081 21.6055C32.2081 21.8047 32.1417 21.9629 32.0089 22.0801C31.8761 22.1973 31.6788 22.2559 31.4171 22.2559H28.5519V25.0859C28.5519 25.4453 28.4698 25.7129 28.3058 25.8887C28.1456 26.0605 27.9386 26.1465 27.6847 26.1465C27.4269 26.1465 27.2159 26.0586 27.0519 25.8828C26.8917 25.707 26.8116 25.4414 26.8116 25.0859V18.4766C26.8116 18.2266 26.8488 18.0234 26.923 17.8672C26.9972 17.707 27.1124 17.5918 27.2687 17.5215C27.4288 17.4473 27.632 17.4102 27.8781 17.4102H31.9796C32.257 17.4102 32.462 17.4727 32.5948 17.5977C32.7316 17.7188 32.7999 17.8789 32.7999 18.0781C32.7999 18.2812 32.7316 18.4453 32.5948 18.5703C32.462 18.6914 32.257 18.752 31.9796 18.752Z" fill="#54BAE0"></path>
    <path d="M21.1222 17.2637C22.0128 17.2637 22.7765 17.4453 23.4132 17.8086C24.0538 18.168 24.5382 18.6816 24.8663 19.3496C25.1945 20.0137 25.3585 20.7949 25.3585 21.6934C25.3585 22.3574 25.2687 22.9609 25.089 23.5039C24.9093 24.0469 24.6398 24.5176 24.2804 24.916C23.921 25.3145 23.4796 25.6191 22.9562 25.8301C22.4327 26.041 21.8331 26.1465 21.1573 26.1465C20.4855 26.1465 19.8839 26.0391 19.3527 25.8242C18.8214 25.6055 18.3781 25.2988 18.0226 24.9043C17.6671 24.5098 17.3976 24.0352 17.214 23.4805C17.0343 22.9258 16.9445 22.3262 16.9445 21.6816C16.9445 21.0215 17.0382 20.416 17.2257 19.8652C17.4171 19.3145 17.6925 18.8457 18.0519 18.459C18.4113 18.0723 18.8488 17.7773 19.3644 17.5742C19.88 17.3672 20.4659 17.2637 21.1222 17.2637ZM23.5948 21.6816C23.5948 21.0527 23.4933 20.5078 23.2902 20.0469C23.087 19.5859 22.796 19.2383 22.4171 19.0039C22.0421 18.7656 21.6105 18.6465 21.1222 18.6465C20.7745 18.6465 20.4523 18.7129 20.1554 18.8457C19.8624 18.9746 19.6085 19.1641 19.3937 19.4141C19.1827 19.6641 19.0148 19.9844 18.8898 20.375C18.7687 20.7617 18.7081 21.1973 18.7081 21.6816C18.7081 22.1699 18.7687 22.6113 18.8898 23.0059C19.0148 23.4004 19.1886 23.7285 19.4113 23.9902C19.6378 24.248 19.8956 24.4414 20.1847 24.5703C20.4777 24.6992 20.798 24.7637 21.1456 24.7637C21.5909 24.7637 21.9991 24.6523 22.3702 24.4297C22.7452 24.207 23.0421 23.8633 23.2609 23.3984C23.4835 22.9336 23.5948 22.3613 23.5948 21.6816Z" fill="#54BAE0"></path>
  </symbol>
</svg>